<svg xmlns="http://www.w3.org/2000/svg" xmlns:xlink="http://www.w3.org/1999/xlink" width="440" zoomAndPan="magnify" viewBox="0 0 330 149.999998" height="200" preserveAspectRatio="xMidYMid meet" version="1.0"><defs><g/><clipPath id="ebd86c37b9"><path d="M 0.121094 2 L 250 2 L 250 44 L 0.121094 44 Z M 0.121094 2 " clip-rule="nonzero"/></clipPath><clipPath id="5662f481ba"><rect x="0" width="250" y="0" height="42"/></clipPath><clipPath id="a90a22f228"><path d="M 0.121094 0.800781 L 248 0.800781 L 248 43 L 0.121094 43 Z M 0.121094 0.800781 " clip-rule="nonzero"/></clipPath><clipPath id="7b6922aeaa"><path d="M 0.121094 6 L 26 6 L 26 32 L 0.121094 32 Z M 0.121094 6 " clip-rule="nonzero"/></clipPath><clipPath id="196b29f88c"><rect x="0" width="248" y="0" height="43"/></clipPath><clipPath id="9fd61c1e98"><path d="M 248 12 L 313.558594 12 L 313.558594 40 L 248 40 Z M 248 12 " clip-rule="nonzero"/></clipPath><clipPath id="e68feb7cd8"><path d="M 0.28125 1 L 24 1 L 24 21 L 0.28125 21 Z M 0.28125 1 " clip-rule="nonzero"/></clipPath><clipPath id="6336e3289d"><rect x="0" width="66" y="0" height="28"/></clipPath><clipPath id="1e567b6a77"><rect x="0" width="314" y="0" height="44"/></clipPath></defs><g transform="matrix(1, 0, 0, 1, 9, 52)"><g clip-path="url(#1e567b6a77)"><g clip-path="url(#ebd86c37b9)"><g transform="matrix(1, 0, 0, 1, 0, 2)"><g clip-path="url(#5662f481ba)"><g fill="#ffffff" fill-opacity="1"><g transform="translate(2.023079, 31.558057)"><g><path d="M 7.3125 -1.199219 L 7.3125 0.105469 L -0.105469 0.105469 L -0.105469 -1.308594 L 2.402344 -1.308594 L 2.402344 -1.199219 L 2.292969 -1.199219 L 2.292969 -2.507812 L 3.601562 -2.507812 L 3.601562 -2.402344 L 3.496094 -2.402344 L 3.496094 -6.109375 L 4.800781 -6.109375 L 4.800781 -6.003906 L 4.695312 -6.003906 L 4.695312 -8.511719 L 6.003906 -8.511719 L 6.003906 -8.402344 L 5.894531 -8.402344 L 5.894531 -10.914062 L 7.203125 -10.914062 L 7.203125 -10.804688 L 7.097656 -10.804688 L 7.097656 -13.3125 L 8.402344 -13.3125 L 8.402344 -13.207031 L 8.296875 -13.207031 L 8.296875 -16.914062 L 9.605469 -16.914062 L 9.605469 -16.808594 L 9.496094 -16.808594 L 9.496094 -19.316406 L 10.804688 -19.316406 L 10.804688 -19.207031 L 10.699219 -19.207031 L 10.699219 -22.917969 L 12.003906 -22.917969 L 12.003906 -22.8125 L 11.898438 -22.8125 L 11.898438 -25.320312 L 13.3125 -25.320312 L 13.3125 -22.8125 L 13.207031 -22.8125 L 13.207031 -22.917969 L 14.515625 -22.917969 L 14.515625 -20.410156 L 14.40625 -20.410156 L 14.40625 -20.515625 L 15.714844 -20.515625 L 15.714844 -16.808594 L 15.605469 -16.808594 L 15.605469 -16.914062 L 16.914062 -16.914062 L 16.914062 -14.40625 L 16.808594 -14.40625 L 16.808594 -14.515625 L 18.117188 -14.515625 L 18.117188 -10.804688 L 18.007812 -10.804688 L 18.007812 -10.914062 L 19.316406 -10.914062 L 19.316406 -8.402344 L 19.207031 -8.402344 L 19.207031 -8.511719 L 20.515625 -8.511719 L 20.515625 -6.003906 L 20.410156 -6.003906 L 20.410156 -6.109375 L 21.71875 -6.109375 L 21.71875 -3.601562 L 21.609375 -3.601562 L 21.609375 -3.707031 L 22.917969 -3.707031 L 22.917969 -1.199219 L 22.8125 -1.199219 L 22.8125 -1.308594 L 25.320312 -1.308594 L 25.320312 0.105469 L 15.5 0.105469 L 15.5 -1.308594 L 18.007812 -1.308594 L 18.007812 -1.199219 L 17.902344 -1.199219 L 17.902344 -4.800781 L 18.007812 -4.800781 L 18.007812 -4.695312 L 16.699219 -4.695312 L 16.699219 -8.402344 L 16.808594 -8.402344 L 16.808594 -8.296875 L 7.203125 -8.296875 L 7.203125 -8.402344 L 7.3125 -8.402344 L 7.3125 -7.097656 L 6.003906 -7.097656 L 6.003906 -7.203125 L 6.109375 -7.203125 L 6.109375 -4.695312 L 4.800781 -4.695312 L 4.800781 -4.800781 L 4.910156 -4.800781 L 4.910156 -1.199219 L 4.800781 -1.199219 L 4.800781 -1.308594 L 7.3125 -1.308594 Z M 7.097656 -1.199219 L 7.203125 -1.199219 L 7.203125 -1.09375 L 4.695312 -1.09375 L 4.695312 -4.910156 L 6.003906 -4.910156 L 6.003906 -4.800781 L 5.894531 -4.800781 L 5.894531 -7.3125 L 7.203125 -7.3125 L 7.203125 -7.203125 L 7.097656 -7.203125 L 7.097656 -8.511719 L 16.914062 -8.511719 L 16.914062 -4.800781 L 16.808594 -4.800781 L 16.808594 -4.910156 L 18.117188 -4.910156 L 18.117188 -1.09375 L 15.605469 -1.09375 L 15.605469 -1.199219 L 15.714844 -1.199219 L 15.714844 0 L 15.605469 0 L 15.605469 -0.105469 L 25.210938 -0.105469 L 25.210938 0 L 25.105469 0 L 25.105469 -1.199219 L 25.210938 -1.199219 L 25.210938 -1.09375 L 22.703125 -1.09375 L 22.703125 -3.601562 L 22.8125 -3.601562 L 22.8125 -3.496094 L 21.503906 -3.496094 L 21.503906 -6.003906 L 21.609375 -6.003906 L 21.609375 -5.894531 L 20.300781 -5.894531 L 20.300781 -8.402344 L 20.410156 -8.402344 L 20.410156 -8.296875 L 19.101562 -8.296875 L 19.101562 -10.804688 L 19.207031 -10.804688 L 19.207031 -10.699219 L 17.902344 -10.699219 L 17.902344 -14.40625 L 18.007812 -14.40625 L 18.007812 -14.300781 L 16.699219 -14.300781 L 16.699219 -16.808594 L 16.808594 -16.808594 L 16.808594 -16.699219 L 15.5 -16.699219 L 15.5 -20.410156 L 15.605469 -20.410156 L 15.605469 -20.300781 L 14.300781 -20.300781 L 14.300781 -22.8125 L 14.40625 -22.8125 L 14.40625 -22.703125 L 13.097656 -22.703125 L 13.097656 -25.210938 L 13.207031 -25.210938 L 13.207031 -25.105469 L 12.003906 -25.105469 L 12.003906 -25.210938 L 12.113281 -25.210938 L 12.113281 -22.703125 L 10.804688 -22.703125 L 10.804688 -22.8125 L 10.914062 -22.8125 L 10.914062 -19.101562 L 9.605469 -19.101562 L 9.605469 -19.207031 L 9.710938 -19.207031 L 9.710938 -16.699219 L 8.402344 -16.699219 L 8.402344 -16.808594 L 8.511719 -16.808594 L 8.511719 -13.097656 L 7.203125 -13.097656 L 7.203125 -13.207031 L 7.3125 -13.207031 L 7.3125 -10.699219 L 6.003906 -10.699219 L 6.003906 -10.804688 L 6.109375 -10.804688 L 6.109375 -8.296875 L 4.800781 -8.296875 L 4.800781 -8.402344 L 4.910156 -8.402344 L 4.910156 -5.894531 L 3.601562 -5.894531 L 3.601562 -6.003906 L 3.707031 -6.003906 L 3.707031 -2.292969 L 2.402344 -2.292969 L 2.402344 -2.402344 L 2.507812 -2.402344 L 2.507812 -1.09375 L 0 -1.09375 L 0 -1.199219 L 0.105469 -1.199219 L 0.105469 0 L 0 0 L 0 -0.105469 L 7.203125 -0.105469 L 7.203125 0 L 7.097656 0 Z M 12.003906 -19.101562 L 10.804688 -19.101562 L 10.804688 -19.207031 L 10.914062 -19.207031 L 10.914062 -15.5 L 9.605469 -15.5 L 9.605469 -15.605469 L 9.710938 -15.605469 L 9.710938 -13.097656 L 8.402344 -13.097656 L 8.402344 -13.207031 L 8.511719 -13.207031 L 8.511719 -10.699219 L 7.203125 -10.699219 L 7.203125 -10.804688 L 7.3125 -10.804688 L 7.3125 -9.605469 L 7.203125 -9.605469 L 7.203125 -9.710938 L 15.605469 -9.710938 L 15.605469 -9.605469 L 15.5 -9.605469 L 15.5 -10.804688 L 15.605469 -10.804688 L 15.605469 -10.699219 L 14.300781 -10.699219 L 14.300781 -13.207031 L 14.40625 -13.207031 L 14.40625 -13.097656 L 13.097656 -13.097656 L 13.097656 -16.808594 L 13.207031 -16.808594 L 13.207031 -16.699219 L 11.898438 -16.699219 L 11.898438 -19.207031 L 12.003906 -19.207031 Z M 12.113281 -19.316406 L 12.113281 -16.808594 L 12.003906 -16.808594 L 12.003906 -16.914062 L 13.3125 -16.914062 L 13.3125 -13.207031 L 13.207031 -13.207031 L 13.207031 -13.3125 L 14.515625 -13.3125 L 14.515625 -10.804688 L 14.40625 -10.804688 L 14.40625 -10.914062 L 15.714844 -10.914062 L 15.714844 -9.496094 L 7.097656 -9.496094 L 7.097656 -10.914062 L 8.402344 -10.914062 L 8.402344 -10.804688 L 8.296875 -10.804688 L 8.296875 -13.3125 L 9.605469 -13.3125 L 9.605469 -13.207031 L 9.496094 -13.207031 L 9.496094 -15.714844 L 10.804688 -15.714844 L 10.804688 -15.605469 L 10.699219 -15.605469 L 10.699219 -19.316406 Z M 12.113281 -19.316406 "/></g></g></g><g fill="#ffffff" fill-opacity="1"><g transform="translate(27.231105, 31.558057)"><g><path d="M 7.3125 -10.804688 L 7.3125 -2.402344 L 7.203125 -2.402344 L 7.203125 -2.507812 L 8.511719 -2.507812 L 8.511719 -1.199219 L 8.402344 -1.199219 L 8.402344 -1.308594 L 10.914062 -1.308594 L 10.914062 0.105469 L 1.09375 0.105469 L 1.09375 -1.308594 L 3.601562 -1.308594 L 3.601562 -1.199219 L 3.496094 -1.199219 L 3.496094 -22.8125 L 3.601562 -22.8125 L 3.601562 -22.703125 L 1.09375 -22.703125 L 1.09375 -24.117188 L 15.714844 -24.117188 L 15.714844 -22.8125 L 15.605469 -22.8125 L 15.605469 -22.917969 L 18.117188 -22.917969 L 18.117188 -21.609375 L 18.007812 -21.609375 L 18.007812 -21.71875 L 19.316406 -21.71875 L 19.316406 -20.410156 L 19.207031 -20.410156 L 19.207031 -20.515625 L 20.515625 -20.515625 L 20.515625 -16.699219 L 19.207031 -16.699219 L 19.207031 -16.808594 L 19.316406 -16.808594 L 19.316406 -14.300781 L 18.007812 -14.300781 L 18.007812 -14.40625 L 18.117188 -14.40625 L 18.117188 -13.097656 L 16.808594 -13.097656 L 16.808594 -13.207031 L 16.914062 -13.207031 L 16.914062 -11.898438 L 15.605469 -11.898438 L 15.605469 -12.003906 L 15.714844 -12.003906 L 15.714844 -10.804688 L 15.605469 -10.804688 L 15.605469 -10.914062 L 16.914062 -10.914062 L 16.914062 -9.605469 L 16.808594 -9.605469 L 16.808594 -9.710938 L 18.117188 -9.710938 L 18.117188 -7.203125 L 18.007812 -7.203125 L 18.007812 -7.3125 L 19.316406 -7.3125 L 19.316406 -4.800781 L 19.207031 -4.800781 L 19.207031 -4.910156 L 20.515625 -4.910156 L 20.515625 -2.402344 L 20.410156 -2.402344 L 20.410156 -2.507812 L 21.71875 -2.507812 L 21.71875 -1.199219 L 21.609375 -1.199219 L 21.609375 -1.308594 L 24.117188 -1.308594 L 24.117188 0.105469 L 17.902344 0.105469 L 17.902344 -1.199219 L 18.007812 -1.199219 L 18.007812 -1.09375 L 16.699219 -1.09375 L 16.699219 -3.601562 L 16.808594 -3.601562 L 16.808594 -3.496094 L 15.5 -3.496094 L 15.5 -7.203125 L 15.605469 -7.203125 L 15.605469 -7.097656 L 14.300781 -7.097656 L 14.300781 -9.605469 L 14.40625 -9.605469 L 14.40625 -9.496094 L 13.097656 -9.496094 L 13.097656 -10.804688 L 13.207031 -10.804688 L 13.207031 -10.699219 L 11.898438 -10.699219 L 11.898438 -12.003906 L 12.003906 -12.003906 L 12.003906 -11.898438 L 6.003906 -11.898438 L 6.003906 -12.003906 L 6.109375 -12.003906 L 6.109375 -10.804688 L 6.003906 -10.804688 L 6.003906 -10.914062 L 7.3125 -10.914062 Z M 7.097656 -10.804688 L 7.203125 -10.804688 L 7.203125 -10.699219 L 5.894531 -10.699219 L 5.894531 -12.113281 L 12.113281 -12.113281 L 12.113281 -10.804688 L 12.003906 -10.804688 L 12.003906 -10.914062 L 13.3125 -10.914062 L 13.3125 -9.605469 L 13.207031 -9.605469 L 13.207031 -9.710938 L 14.515625 -9.710938 L 14.515625 -7.203125 L 14.40625 -7.203125 L 14.40625 -7.3125 L 15.714844 -7.3125 L 15.714844 -3.601562 L 15.605469 -3.601562 L 15.605469 -3.707031 L 16.914062 -3.707031 L 16.914062 -1.199219 L 16.808594 -1.199219 L 16.808594 -1.308594 L 18.117188 -1.308594 L 18.117188 0 L 18.007812 0 L 18.007812 -0.105469 L 24.011719 -0.105469 L 24.011719 0 L 23.902344 0 L 23.902344 -1.199219 L 24.011719 -1.199219 L 24.011719 -1.09375 L 21.503906 -1.09375 L 21.503906 -2.402344 L 21.609375 -2.402344 L 21.609375 -2.292969 L 20.300781 -2.292969 L 20.300781 -4.800781 L 20.410156 -4.800781 L 20.410156 -4.695312 L 19.101562 -4.695312 L 19.101562 -7.203125 L 19.207031 -7.203125 L 19.207031 -7.097656 L 17.902344 -7.097656 L 17.902344 -9.605469 L 18.007812 -9.605469 L 18.007812 -9.496094 L 16.699219 -9.496094 L 16.699219 -10.804688 L 16.808594 -10.804688 L 16.808594 -10.699219 L 15.5 -10.699219 L 15.5 -12.113281 L 16.808594 -12.113281 L 16.808594 -12.003906 L 16.699219 -12.003906 L 16.699219 -13.3125 L 18.007812 -13.3125 L 18.007812 -13.207031 L 17.902344 -13.207031 L 17.902344 -14.515625 L 19.207031 -14.515625 L 19.207031 -14.40625 L 19.101562 -14.40625 L 19.101562 -16.914062 L 20.410156 -16.914062 L 20.410156 -16.808594 L 20.300781 -16.808594 L 20.300781 -20.410156 L 20.410156 -20.410156 L 20.410156 -20.300781 L 19.101562 -20.300781 L 19.101562 -21.609375 L 19.207031 -21.609375 L 19.207031 -21.503906 L 17.902344 -21.503906 L 17.902344 -22.8125 L 18.007812 -22.8125 L 18.007812 -22.703125 L 15.5 -22.703125 L 15.5 -24.011719 L 15.605469 -24.011719 L 15.605469 -23.902344 L 1.199219 -23.902344 L 1.199219 -24.011719 L 1.308594 -24.011719 L 1.308594 -22.8125 L 1.199219 -22.8125 L 1.199219 -22.917969 L 3.707031 -22.917969 L 3.707031 -1.09375 L 1.199219 -1.09375 L 1.199219 -1.199219 L 1.308594 -1.199219 L 1.308594 0 L 1.199219 0 L 1.199219 -0.105469 L 10.804688 -0.105469 L 10.804688 0 L 10.699219 0 L 10.699219 -1.199219 L 10.804688 -1.199219 L 10.804688 -1.09375 L 8.296875 -1.09375 L 8.296875 -2.402344 L 8.402344 -2.402344 L 8.402344 -2.292969 L 7.097656 -2.292969 Z M 7.203125 -13.3125 L 14.40625 -13.3125 L 14.40625 -13.207031 L 14.300781 -13.207031 L 14.300781 -14.515625 L 15.605469 -14.515625 L 15.605469 -14.40625 L 15.5 -14.40625 L 15.5 -15.714844 L 16.808594 -15.714844 L 16.808594 -15.605469 L 16.699219 -15.605469 L 16.699219 -19.207031 L 16.808594 -19.207031 L 16.808594 -19.101562 L 15.5 -19.101562 L 15.5 -21.609375 L 15.605469 -21.609375 L 15.605469 -21.503906 L 14.300781 -21.503906 L 14.300781 -22.8125 L 14.40625 -22.8125 L 14.40625 -22.703125 L 6.003906 -22.703125 L 6.003906 -22.8125 L 6.109375 -22.8125 L 6.109375 -21.609375 L 6.003906 -21.609375 L 6.003906 -21.71875 L 7.3125 -21.71875 L 7.3125 -13.207031 L 7.203125 -13.207031 Z M 7.097656 -13.097656 L 7.097656 -21.609375 L 7.203125 -21.609375 L 7.203125 -21.503906 L 5.894531 -21.503906 L 5.894531 -22.917969 L 14.515625 -22.917969 L 14.515625 -21.609375 L 14.40625 -21.609375 L 14.40625 -21.71875 L 15.714844 -21.71875 L 15.714844 -19.207031 L 15.605469 -19.207031 L 15.605469 -19.316406 L 16.914062 -19.316406 L 16.914062 -15.5 L 15.605469 -15.5 L 15.605469 -15.605469 L 15.714844 -15.605469 L 15.714844 -14.300781 L 14.40625 -14.300781 L 14.40625 -14.40625 L 14.515625 -14.40625 L 14.515625 -13.097656 Z M 7.097656 -13.097656 "/></g></g></g><g fill="#ffffff" fill-opacity="1"><g transform="translate(51.238746, 31.558057)"><g><path d="M 7.203125 -2.292969 L 6.003906 -2.292969 L 6.003906 -2.402344 L 6.109375 -2.402344 L 6.109375 -1.199219 L 6.003906 -1.199219 L 6.003906 -1.308594 L 15.605469 -1.308594 L 15.605469 -1.199219 L 15.5 -1.199219 L 15.5 -2.507812 L 18.007812 -2.507812 L 18.007812 -2.402344 L 17.902344 -2.402344 L 17.902344 -4.910156 L 19.207031 -4.910156 L 19.207031 -4.800781 L 19.101562 -4.800781 L 19.101562 -7.3125 L 20.410156 -7.3125 L 20.410156 -7.203125 L 20.300781 -7.203125 L 20.300781 -8.511719 L 21.71875 -8.511719 L 21.71875 -5.894531 L 20.410156 -5.894531 L 20.410156 -6.003906 L 20.515625 -6.003906 L 20.515625 0.105469 L 1.09375 0.105469 L 1.09375 -1.308594 L 3.601562 -1.308594 L 3.601562 -1.199219 L 3.496094 -1.199219 L 3.496094 -22.8125 L 3.601562 -22.8125 L 3.601562 -22.703125 L 1.09375 -22.703125 L 1.09375 -24.117188 L 20.515625 -24.117188 L 20.515625 -15.5 L 19.101562 -15.5 L 19.101562 -19.207031 L 19.207031 -19.207031 L 19.207031 -19.101562 L 17.902344 -19.101562 L 17.902344 -21.609375 L 18.007812 -21.609375 L 18.007812 -21.503906 L 15.5 -21.503906 L 15.5 -22.8125 L 15.605469 -22.8125 L 15.605469 -22.703125 L 6.003906 -22.703125 L 6.003906 -22.8125 L 6.109375 -22.8125 L 6.109375 -21.609375 L 6.003906 -21.609375 L 6.003906 -21.71875 L 7.3125 -21.71875 L 7.3125 -13.207031 L 7.203125 -13.207031 L 7.203125 -13.3125 L 13.207031 -13.3125 L 13.207031 -13.207031 L 13.097656 -13.207031 L 13.097656 -14.515625 L 14.40625 -14.515625 L 14.40625 -14.40625 L 14.300781 -14.40625 L 14.300781 -16.914062 L 15.714844 -16.914062 L 15.714844 -7.097656 L 14.300781 -7.097656 L 14.300781 -9.605469 L 14.40625 -9.605469 L 14.40625 -9.496094 L 13.097656 -9.496094 L 13.097656 -10.804688 L 13.207031 -10.804688 L 13.207031 -10.699219 L 11.898438 -10.699219 L 11.898438 -12.003906 L 12.003906 -12.003906 L 12.003906 -11.898438 L 7.203125 -11.898438 L 7.203125 -12.003906 L 7.3125 -12.003906 L 7.3125 -2.292969 Z M 7.203125 -2.507812 L 7.203125 -2.402344 L 7.097656 -2.402344 L 7.097656 -12.113281 L 12.113281 -12.113281 L 12.113281 -10.804688 L 12.003906 -10.804688 L 12.003906 -10.914062 L 13.3125 -10.914062 L 13.3125 -9.605469 L 13.207031 -9.605469 L 13.207031 -9.710938 L 14.515625 -9.710938 L 14.515625 -7.203125 L 14.40625 -7.203125 L 14.40625 -7.3125 L 15.605469 -7.3125 L 15.605469 -7.203125 L 15.5 -7.203125 L 15.5 -16.808594 L 15.605469 -16.808594 L 15.605469 -16.699219 L 14.40625 -16.699219 L 14.40625 -16.808594 L 14.515625 -16.808594 L 14.515625 -14.300781 L 13.207031 -14.300781 L 13.207031 -14.40625 L 13.3125 -14.40625 L 13.3125 -13.097656 L 7.097656 -13.097656 L 7.097656 -21.609375 L 7.203125 -21.609375 L 7.203125 -21.503906 L 5.894531 -21.503906 L 5.894531 -22.917969 L 15.714844 -22.917969 L 15.714844 -21.609375 L 15.605469 -21.609375 L 15.605469 -21.71875 L 18.117188 -21.71875 L 18.117188 -19.207031 L 18.007812 -19.207031 L 18.007812 -19.316406 L 19.316406 -19.316406 L 19.316406 -15.605469 L 19.207031 -15.605469 L 19.207031 -15.714844 L 20.410156 -15.714844 L 20.410156 -15.605469 L 20.300781 -15.605469 L 20.300781 -24.011719 L 20.410156 -24.011719 L 20.410156 -23.902344 L 1.199219 -23.902344 L 1.199219 -24.011719 L 1.308594 -24.011719 L 1.308594 -22.8125 L 1.199219 -22.8125 L 1.199219 -22.917969 L 3.707031 -22.917969 L 3.707031 -1.09375 L 1.199219 -1.09375 L 1.199219 -1.199219 L 1.308594 -1.199219 L 1.308594 0 L 1.199219 0 L 1.199219 -0.105469 L 20.410156 -0.105469 L 20.410156 0 L 20.300781 0 L 20.300781 -6.109375 L 21.609375 -6.109375 L 21.609375 -6.003906 L 21.503906 -6.003906 L 21.503906 -8.402344 L 21.609375 -8.402344 L 21.609375 -8.296875 L 20.410156 -8.296875 L 20.410156 -8.402344 L 20.515625 -8.402344 L 20.515625 -7.097656 L 19.207031 -7.097656 L 19.207031 -7.203125 L 19.316406 -7.203125 L 19.316406 -4.695312 L 18.007812 -4.695312 L 18.007812 -4.800781 L 18.117188 -4.800781 L 18.117188 -2.292969 L 15.605469 -2.292969 L 15.605469 -2.402344 L 15.714844 -2.402344 L 15.714844 -1.09375 L 5.894531 -1.09375 L 5.894531 -2.507812 Z M 7.203125 -2.507812 "/></g></g></g><g fill="#ffffff" fill-opacity="1"><g transform="translate(74.046001, 31.558057)"><g><path d="M 16.914062 -1.199219 L 16.914062 0.105469 L 8.296875 0.105469 L 8.296875 -1.199219 L 8.402344 -1.199219 L 8.402344 -1.09375 L 5.894531 -1.09375 L 5.894531 -2.402344 L 6.003906 -2.402344 L 6.003906 -2.292969 L 4.695312 -2.292969 L 4.695312 -3.601562 L 4.800781 -3.601562 L 4.800781 -3.496094 L 3.496094 -3.496094 L 3.496094 -4.800781 L 3.601562 -4.800781 L 3.601562 -4.695312 L 2.292969 -4.695312 L 2.292969 -7.203125 L 2.402344 -7.203125 L 2.402344 -7.097656 L 1.09375 -7.097656 L 1.09375 -15.714844 L 2.402344 -15.714844 L 2.402344 -15.605469 L 2.292969 -15.605469 L 2.292969 -19.316406 L 3.601562 -19.316406 L 3.601562 -19.207031 L 3.496094 -19.207031 L 3.496094 -20.515625 L 4.800781 -20.515625 L 4.800781 -20.410156 L 4.695312 -20.410156 L 4.695312 -21.71875 L 6.003906 -21.71875 L 6.003906 -21.609375 L 5.894531 -21.609375 L 5.894531 -22.917969 L 8.402344 -22.917969 L 8.402344 -22.8125 L 8.296875 -22.8125 L 8.296875 -24.117188 L 16.914062 -24.117188 L 16.914062 -22.8125 L 16.808594 -22.8125 L 16.808594 -22.917969 L 18.117188 -22.917969 L 18.117188 -21.609375 L 18.007812 -21.609375 L 18.007812 -21.71875 L 19.207031 -21.71875 L 19.207031 -21.609375 L 19.101562 -21.609375 L 19.101562 -24.117188 L 21.71875 -24.117188 L 21.71875 -15.5 L 20.300781 -15.5 L 20.300781 -16.808594 L 20.410156 -16.808594 L 20.410156 -16.699219 L 19.101562 -16.699219 L 19.101562 -19.207031 L 19.207031 -19.207031 L 19.207031 -19.101562 L 17.902344 -19.101562 L 17.902344 -20.410156 L 18.007812 -20.410156 L 18.007812 -20.300781 L 16.699219 -20.300781 L 16.699219 -21.609375 L 16.808594 -21.609375 L 16.808594 -21.503906 L 15.5 -21.503906 L 15.5 -22.8125 L 15.605469 -22.8125 L 15.605469 -22.703125 L 9.605469 -22.703125 L 9.605469 -22.8125 L 9.710938 -22.8125 L 9.710938 -21.503906 L 8.402344 -21.503906 L 8.402344 -21.609375 L 8.511719 -21.609375 L 8.511719 -20.300781 L 7.203125 -20.300781 L 7.203125 -20.410156 L 7.3125 -20.410156 L 7.3125 -19.101562 L 6.003906 -19.101562 L 6.003906 -19.207031 L 6.109375 -19.207031 L 6.109375 -15.5 L 4.800781 -15.5 L 4.800781 -15.605469 L 4.910156 -15.605469 L 4.910156 -9.605469 L 4.800781 -9.605469 L 4.800781 -9.710938 L 6.109375 -9.710938 L 6.109375 -6.003906 L 6.003906 -6.003906 L 6.003906 -6.109375 L 7.3125 -6.109375 L 7.3125 -3.601562 L 7.203125 -3.601562 L 7.203125 -3.707031 L 8.511719 -3.707031 L 8.511719 -2.402344 L 8.402344 -2.402344 L 8.402344 -2.507812 L 10.914062 -2.507812 L 10.914062 -1.199219 L 10.804688 -1.199219 L 10.804688 -1.308594 L 15.605469 -1.308594 L 15.605469 -1.199219 L 15.5 -1.199219 L 15.5 -2.507812 L 18.007812 -2.507812 L 18.007812 -2.402344 L 17.902344 -2.402344 L 17.902344 -3.707031 L 19.207031 -3.707031 L 19.207031 -3.601562 L 19.101562 -3.601562 L 19.101562 -4.910156 L 20.515625 -4.910156 L 20.515625 -3.496094 L 19.207031 -3.496094 L 19.207031 -3.601562 L 19.316406 -3.601562 L 19.316406 -2.292969 L 18.007812 -2.292969 L 18.007812 -2.402344 L 18.117188 -2.402344 L 18.117188 -1.09375 L 16.808594 -1.09375 L 16.808594 -1.199219 Z M 16.699219 -1.308594 L 18.007812 -1.308594 L 18.007812 -1.199219 L 17.902344 -1.199219 L 17.902344 -2.507812 L 19.207031 -2.507812 L 19.207031 -2.402344 L 19.101562 -2.402344 L 19.101562 -3.707031 L 20.410156 -3.707031 L 20.410156 -3.601562 L 20.300781 -3.601562 L 20.300781 -4.800781 L 20.410156 -4.800781 L 20.410156 -4.695312 L 19.207031 -4.695312 L 19.207031 -4.800781 L 19.316406 -4.800781 L 19.316406 -3.496094 L 18.007812 -3.496094 L 18.007812 -3.601562 L 18.117188 -3.601562 L 18.117188 -2.292969 L 15.605469 -2.292969 L 15.605469 -2.402344 L 15.714844 -2.402344 L 15.714844 -1.09375 L 10.699219 -1.09375 L 10.699219 -2.402344 L 10.804688 -2.402344 L 10.804688 -2.292969 L 8.296875 -2.292969 L 8.296875 -3.601562 L 8.402344 -3.601562 L 8.402344 -3.496094 L 7.097656 -3.496094 L 7.097656 -6.003906 L 7.203125 -6.003906 L 7.203125 -5.894531 L 5.894531 -5.894531 L 5.894531 -9.605469 L 6.003906 -9.605469 L 6.003906 -9.496094 L 4.695312 -9.496094 L 4.695312 -15.714844 L 6.003906 -15.714844 L 6.003906 -15.605469 L 5.894531 -15.605469 L 5.894531 -19.316406 L 7.203125 -19.316406 L 7.203125 -19.207031 L 7.097656 -19.207031 L 7.097656 -20.515625 L 8.402344 -20.515625 L 8.402344 -20.410156 L 8.296875 -20.410156 L 8.296875 -21.71875 L 9.605469 -21.71875 L 9.605469 -21.609375 L 9.496094 -21.609375 L 9.496094 -22.917969 L 15.714844 -22.917969 L 15.714844 -21.609375 L 15.605469 -21.609375 L 15.605469 -21.71875 L 16.914062 -21.71875 L 16.914062 -20.410156 L 16.808594 -20.410156 L 16.808594 -20.515625 L 18.117188 -20.515625 L 18.117188 -19.207031 L 18.007812 -19.207031 L 18.007812 -19.316406 L 19.316406 -19.316406 L 19.316406 -16.808594 L 19.207031 -16.808594 L 19.207031 -16.914062 L 20.515625 -16.914062 L 20.515625 -15.605469 L 20.410156 -15.605469 L 20.410156 -15.714844 L 21.609375 -15.714844 L 21.609375 -15.605469 L 21.503906 -15.605469 L 21.503906 -24.011719 L 21.609375 -24.011719 L 21.609375 -23.902344 L 19.207031 -23.902344 L 19.207031 -24.011719 L 19.316406 -24.011719 L 19.316406 -21.503906 L 17.902344 -21.503906 L 17.902344 -22.8125 L 18.007812 -22.8125 L 18.007812 -22.703125 L 16.699219 -22.703125 L 16.699219 -24.011719 L 16.808594 -24.011719 L 16.808594 -23.902344 L 8.402344 -23.902344 L 8.402344 -24.011719 L 8.511719 -24.011719 L 8.511719 -22.703125 L 6.003906 -22.703125 L 6.003906 -22.8125 L 6.109375 -22.8125 L 6.109375 -21.503906 L 4.800781 -21.503906 L 4.800781 -21.609375 L 4.910156 -21.609375 L 4.910156 -20.300781 L 3.601562 -20.300781 L 3.601562 -20.410156 L 3.707031 -20.410156 L 3.707031 -19.101562 L 2.402344 -19.101562 L 2.402344 -19.207031 L 2.507812 -19.207031 L 2.507812 -15.5 L 1.199219 -15.5 L 1.199219 -15.605469 L 1.308594 -15.605469 L 1.308594 -7.203125 L 1.199219 -7.203125 L 1.199219 -7.3125 L 2.507812 -7.3125 L 2.507812 -4.800781 L 2.402344 -4.800781 L 2.402344 -4.910156 L 3.707031 -4.910156 L 3.707031 -3.601562 L 3.601562 -3.601562 L 3.601562 -3.707031 L 4.910156 -3.707031 L 4.910156 -2.402344 L 4.800781 -2.402344 L 4.800781 -2.507812 L 6.109375 -2.507812 L 6.109375 -1.199219 L 6.003906 -1.199219 L 6.003906 -1.308594 L 8.511719 -1.308594 L 8.511719 0 L 8.402344 0 L 8.402344 -0.105469 L 16.808594 -0.105469 L 16.808594 0 L 16.699219 0 Z M 16.699219 -1.308594 "/></g></g></g><g fill="#ffffff" fill-opacity="1"><g transform="translate(96.853256, 31.558057)"><g><path d="M 18.117188 -1.199219 L 18.117188 0.105469 L 8.296875 0.105469 L 8.296875 -1.199219 L 8.402344 -1.199219 L 8.402344 -1.09375 L 5.894531 -1.09375 L 5.894531 -2.402344 L 6.003906 -2.402344 L 6.003906 -2.292969 L 4.695312 -2.292969 L 4.695312 -6.003906 L 4.800781 -6.003906 L 4.800781 -5.894531 L 3.496094 -5.894531 L 3.496094 -22.8125 L 3.601562 -22.8125 L 3.601562 -22.703125 L 1.09375 -22.703125 L 1.09375 -24.117188 L 10.914062 -24.117188 L 10.914062 -22.703125 L 8.402344 -22.703125 L 8.402344 -22.8125 L 8.511719 -22.8125 L 8.511719 -21.503906 L 7.203125 -21.503906 L 7.203125 -21.609375 L 7.3125 -21.609375 L 7.3125 -6.003906 L 7.203125 -6.003906 L 7.203125 -6.109375 L 8.511719 -6.109375 L 8.511719 -3.601562 L 8.402344 -3.601562 L 8.402344 -3.707031 L 9.710938 -3.707031 L 9.710938 -2.402344 L 9.605469 -2.402344 L 9.605469 -2.507812 L 13.3125 -2.507812 L 13.3125 -1.199219 L 13.207031 -1.199219 L 13.207031 -1.308594 L 15.605469 -1.308594 L 15.605469 -1.199219 L 15.5 -1.199219 L 15.5 -2.507812 L 18.007812 -2.507812 L 18.007812 -2.402344 L 17.902344 -2.402344 L 17.902344 -3.707031 L 19.207031 -3.707031 L 19.207031 -3.601562 L 19.101562 -3.601562 L 19.101562 -6.109375 L 20.410156 -6.109375 L 20.410156 -6.003906 L 20.300781 -6.003906 L 20.300781 -21.609375 L 20.410156 -21.609375 L 20.410156 -21.503906 L 19.101562 -21.503906 L 19.101562 -22.8125 L 19.207031 -22.8125 L 19.207031 -22.703125 L 16.699219 -22.703125 L 16.699219 -24.117188 L 25.320312 -24.117188 L 25.320312 -22.703125 L 22.8125 -22.703125 L 22.8125 -22.8125 L 22.917969 -22.8125 L 22.917969 -7.097656 L 21.609375 -7.097656 L 21.609375 -7.203125 L 21.71875 -7.203125 L 21.71875 -3.496094 L 20.410156 -3.496094 L 20.410156 -3.601562 L 20.515625 -3.601562 L 20.515625 -2.292969 L 19.207031 -2.292969 L 19.207031 -2.402344 L 19.316406 -2.402344 L 19.316406 -1.09375 L 18.007812 -1.09375 L 18.007812 -1.199219 Z M 17.902344 -1.308594 L 19.207031 -1.308594 L 19.207031 -1.199219 L 19.101562 -1.199219 L 19.101562 -2.507812 L 20.410156 -2.507812 L 20.410156 -2.402344 L 20.300781 -2.402344 L 20.300781 -3.707031 L 21.609375 -3.707031 L 21.609375 -3.601562 L 21.503906 -3.601562 L 21.503906 -7.3125 L 22.8125 -7.3125 L 22.8125 -7.203125 L 22.703125 -7.203125 L 22.703125 -22.917969 L 25.210938 -22.917969 L 25.210938 -22.8125 L 25.105469 -22.8125 L 25.105469 -24.011719 L 25.210938 -24.011719 L 25.210938 -23.902344 L 16.808594 -23.902344 L 16.808594 -24.011719 L 16.914062 -24.011719 L 16.914062 -22.8125 L 16.808594 -22.8125 L 16.808594 -22.917969 L 19.316406 -22.917969 L 19.316406 -21.609375 L 19.207031 -21.609375 L 19.207031 -21.71875 L 20.515625 -21.71875 L 20.515625 -5.894531 L 19.207031 -5.894531 L 19.207031 -6.003906 L 19.316406 -6.003906 L 19.316406 -3.496094 L 18.007812 -3.496094 L 18.007812 -3.601562 L 18.117188 -3.601562 L 18.117188 -2.292969 L 15.605469 -2.292969 L 15.605469 -2.402344 L 15.714844 -2.402344 L 15.714844 -1.09375 L 13.097656 -1.09375 L 13.097656 -2.402344 L 13.207031 -2.402344 L 13.207031 -2.292969 L 9.496094 -2.292969 L 9.496094 -3.601562 L 9.605469 -3.601562 L 9.605469 -3.496094 L 8.296875 -3.496094 L 8.296875 -6.003906 L 8.402344 -6.003906 L 8.402344 -5.894531 L 7.097656 -5.894531 L 7.097656 -21.71875 L 8.402344 -21.71875 L 8.402344 -21.609375 L 8.296875 -21.609375 L 8.296875 -22.917969 L 10.804688 -22.917969 L 10.804688 -22.8125 L 10.699219 -22.8125 L 10.699219 -24.011719 L 10.804688 -24.011719 L 10.804688 -23.902344 L 1.199219 -23.902344 L 1.199219 -24.011719 L 1.308594 -24.011719 L 1.308594 -22.8125 L 1.199219 -22.8125 L 1.199219 -22.917969 L 3.707031 -22.917969 L 3.707031 -6.003906 L 3.601562 -6.003906 L 3.601562 -6.109375 L 4.910156 -6.109375 L 4.910156 -2.402344 L 4.800781 -2.402344 L 4.800781 -2.507812 L 6.109375 -2.507812 L 6.109375 -1.199219 L 6.003906 -1.199219 L 6.003906 -1.308594 L 8.511719 -1.308594 L 8.511719 0 L 8.402344 0 L 8.402344 -0.105469 L 18.007812 -0.105469 L 18.007812 0 L 17.902344 0 Z M 17.902344 -1.308594 "/></g></g></g><g fill="#ffffff" fill-opacity="1"><g transform="translate(123.261668, 31.558057)"><g><path d="M 20.410156 0.105469 L -0.105469 0.105469 L -0.105469 -1.308594 L 3.601562 -1.308594 L 3.601562 -1.199219 L 3.496094 -1.199219 L 3.496094 -22.8125 L 3.601562 -22.8125 L 3.601562 -22.703125 L -0.105469 -22.703125 L -0.105469 -24.117188 L 10.914062 -24.117188 L 10.914062 -22.703125 L 8.402344 -22.703125 L 8.402344 -22.8125 L 8.511719 -22.8125 L 8.511719 -21.503906 L 7.203125 -21.503906 L 7.203125 -21.609375 L 7.3125 -21.609375 L 7.3125 -2.292969 L 6.003906 -2.292969 L 6.003906 -2.402344 L 6.109375 -2.402344 L 6.109375 -1.199219 L 6.003906 -1.199219 L 6.003906 -1.308594 L 15.605469 -1.308594 L 15.605469 -1.199219 L 15.5 -1.199219 L 15.5 -2.507812 L 18.007812 -2.507812 L 18.007812 -2.402344 L 17.902344 -2.402344 L 17.902344 -4.910156 L 19.207031 -4.910156 L 19.207031 -4.800781 L 19.101562 -4.800781 L 19.101562 -8.511719 L 20.515625 -8.511719 L 20.515625 0.105469 Z M 20.410156 -0.105469 L 20.410156 0 L 20.300781 0 L 20.300781 -8.402344 L 20.410156 -8.402344 L 20.410156 -8.296875 L 19.207031 -8.296875 L 19.207031 -8.402344 L 19.316406 -8.402344 L 19.316406 -4.695312 L 18.007812 -4.695312 L 18.007812 -4.800781 L 18.117188 -4.800781 L 18.117188 -2.292969 L 15.605469 -2.292969 L 15.605469 -2.402344 L 15.714844 -2.402344 L 15.714844 -1.09375 L 5.894531 -1.09375 L 5.894531 -2.507812 L 7.203125 -2.507812 L 7.203125 -2.402344 L 7.097656 -2.402344 L 7.097656 -21.71875 L 8.402344 -21.71875 L 8.402344 -21.609375 L 8.296875 -21.609375 L 8.296875 -22.917969 L 10.804688 -22.917969 L 10.804688 -22.8125 L 10.699219 -22.8125 L 10.699219 -24.011719 L 10.804688 -24.011719 L 10.804688 -23.902344 L 0 -23.902344 L 0 -24.011719 L 0.105469 -24.011719 L 0.105469 -22.8125 L 0 -22.8125 L 0 -22.917969 L 3.707031 -22.917969 L 3.707031 -1.09375 L 0 -1.09375 L 0 -1.199219 L 0.105469 -1.199219 L 0.105469 0 L 0 0 L 0 -0.105469 Z M 20.410156 -0.105469 "/></g></g></g><g fill="#ffffff" fill-opacity="1"><g transform="translate(143.667994, 31.558057)"><g><path d="M 7.3125 -1.199219 L 7.3125 0.105469 L -0.105469 0.105469 L -0.105469 -1.308594 L 2.402344 -1.308594 L 2.402344 -1.199219 L 2.292969 -1.199219 L 2.292969 -2.507812 L 3.601562 -2.507812 L 3.601562 -2.402344 L 3.496094 -2.402344 L 3.496094 -6.109375 L 4.800781 -6.109375 L 4.800781 -6.003906 L 4.695312 -6.003906 L 4.695312 -8.511719 L 6.003906 -8.511719 L 6.003906 -8.402344 L 5.894531 -8.402344 L 5.894531 -10.914062 L 7.203125 -10.914062 L 7.203125 -10.804688 L 7.097656 -10.804688 L 7.097656 -13.3125 L 8.402344 -13.3125 L 8.402344 -13.207031 L 8.296875 -13.207031 L 8.296875 -16.914062 L 9.605469 -16.914062 L 9.605469 -16.808594 L 9.496094 -16.808594 L 9.496094 -19.316406 L 10.804688 -19.316406 L 10.804688 -19.207031 L 10.699219 -19.207031 L 10.699219 -22.917969 L 12.003906 -22.917969 L 12.003906 -22.8125 L 11.898438 -22.8125 L 11.898438 -25.320312 L 13.3125 -25.320312 L 13.3125 -22.8125 L 13.207031 -22.8125 L 13.207031 -22.917969 L 14.515625 -22.917969 L 14.515625 -20.410156 L 14.40625 -20.410156 L 14.40625 -20.515625 L 15.714844 -20.515625 L 15.714844 -16.808594 L 15.605469 -16.808594 L 15.605469 -16.914062 L 16.914062 -16.914062 L 16.914062 -14.40625 L 16.808594 -14.40625 L 16.808594 -14.515625 L 18.117188 -14.515625 L 18.117188 -10.804688 L 18.007812 -10.804688 L 18.007812 -10.914062 L 19.316406 -10.914062 L 19.316406 -8.402344 L 19.207031 -8.402344 L 19.207031 -8.511719 L 20.515625 -8.511719 L 20.515625 -6.003906 L 20.410156 -6.003906 L 20.410156 -6.109375 L 21.71875 -6.109375 L 21.71875 -3.601562 L 21.609375 -3.601562 L 21.609375 -3.707031 L 22.917969 -3.707031 L 22.917969 -1.199219 L 22.8125 -1.199219 L 22.8125 -1.308594 L 25.320312 -1.308594 L 25.320312 0.105469 L 15.5 0.105469 L 15.5 -1.308594 L 18.007812 -1.308594 L 18.007812 -1.199219 L 17.902344 -1.199219 L 17.902344 -4.800781 L 18.007812 -4.800781 L 18.007812 -4.695312 L 16.699219 -4.695312 L 16.699219 -8.402344 L 16.808594 -8.402344 L 16.808594 -8.296875 L 7.203125 -8.296875 L 7.203125 -8.402344 L 7.3125 -8.402344 L 7.3125 -7.097656 L 6.003906 -7.097656 L 6.003906 -7.203125 L 6.109375 -7.203125 L 6.109375 -4.695312 L 4.800781 -4.695312 L 4.800781 -4.800781 L 4.910156 -4.800781 L 4.910156 -1.199219 L 4.800781 -1.199219 L 4.800781 -1.308594 L 7.3125 -1.308594 Z M 7.097656 -1.199219 L 7.203125 -1.199219 L 7.203125 -1.09375 L 4.695312 -1.09375 L 4.695312 -4.910156 L 6.003906 -4.910156 L 6.003906 -4.800781 L 5.894531 -4.800781 L 5.894531 -7.3125 L 7.203125 -7.3125 L 7.203125 -7.203125 L 7.097656 -7.203125 L 7.097656 -8.511719 L 16.914062 -8.511719 L 16.914062 -4.800781 L 16.808594 -4.800781 L 16.808594 -4.910156 L 18.117188 -4.910156 L 18.117188 -1.09375 L 15.605469 -1.09375 L 15.605469 -1.199219 L 15.714844 -1.199219 L 15.714844 0 L 15.605469 0 L 15.605469 -0.105469 L 25.210938 -0.105469 L 25.210938 0 L 25.105469 0 L 25.105469 -1.199219 L 25.210938 -1.199219 L 25.210938 -1.09375 L 22.703125 -1.09375 L 22.703125 -3.601562 L 22.8125 -3.601562 L 22.8125 -3.496094 L 21.503906 -3.496094 L 21.503906 -6.003906 L 21.609375 -6.003906 L 21.609375 -5.894531 L 20.300781 -5.894531 L 20.300781 -8.402344 L 20.410156 -8.402344 L 20.410156 -8.296875 L 19.101562 -8.296875 L 19.101562 -10.804688 L 19.207031 -10.804688 L 19.207031 -10.699219 L 17.902344 -10.699219 L 17.902344 -14.40625 L 18.007812 -14.40625 L 18.007812 -14.300781 L 16.699219 -14.300781 L 16.699219 -16.808594 L 16.808594 -16.808594 L 16.808594 -16.699219 L 15.5 -16.699219 L 15.5 -20.410156 L 15.605469 -20.410156 L 15.605469 -20.300781 L 14.300781 -20.300781 L 14.300781 -22.8125 L 14.40625 -22.8125 L 14.40625 -22.703125 L 13.097656 -22.703125 L 13.097656 -25.210938 L 13.207031 -25.210938 L 13.207031 -25.105469 L 12.003906 -25.105469 L 12.003906 -25.210938 L 12.113281 -25.210938 L 12.113281 -22.703125 L 10.804688 -22.703125 L 10.804688 -22.8125 L 10.914062 -22.8125 L 10.914062 -19.101562 L 9.605469 -19.101562 L 9.605469 -19.207031 L 9.710938 -19.207031 L 9.710938 -16.699219 L 8.402344 -16.699219 L 8.402344 -16.808594 L 8.511719 -16.808594 L 8.511719 -13.097656 L 7.203125 -13.097656 L 7.203125 -13.207031 L 7.3125 -13.207031 L 7.3125 -10.699219 L 6.003906 -10.699219 L 6.003906 -10.804688 L 6.109375 -10.804688 L 6.109375 -8.296875 L 4.800781 -8.296875 L 4.800781 -8.402344 L 4.910156 -8.402344 L 4.910156 -5.894531 L 3.601562 -5.894531 L 3.601562 -6.003906 L 3.707031 -6.003906 L 3.707031 -2.292969 L 2.402344 -2.292969 L 2.402344 -2.402344 L 2.507812 -2.402344 L 2.507812 -1.09375 L 0 -1.09375 L 0 -1.199219 L 0.105469 -1.199219 L 0.105469 0 L 0 0 L 0 -0.105469 L 7.203125 -0.105469 L 7.203125 0 L 7.097656 0 Z M 12.003906 -19.101562 L 10.804688 -19.101562 L 10.804688 -19.207031 L 10.914062 -19.207031 L 10.914062 -15.5 L 9.605469 -15.5 L 9.605469 -15.605469 L 9.710938 -15.605469 L 9.710938 -13.097656 L 8.402344 -13.097656 L 8.402344 -13.207031 L 8.511719 -13.207031 L 8.511719 -10.699219 L 7.203125 -10.699219 L 7.203125 -10.804688 L 7.3125 -10.804688 L 7.3125 -9.605469 L 7.203125 -9.605469 L 7.203125 -9.710938 L 15.605469 -9.710938 L 15.605469 -9.605469 L 15.5 -9.605469 L 15.5 -10.804688 L 15.605469 -10.804688 L 15.605469 -10.699219 L 14.300781 -10.699219 L 14.300781 -13.207031 L 14.40625 -13.207031 L 14.40625 -13.097656 L 13.097656 -13.097656 L 13.097656 -16.808594 L 13.207031 -16.808594 L 13.207031 -16.699219 L 11.898438 -16.699219 L 11.898438 -19.207031 L 12.003906 -19.207031 Z M 12.113281 -19.316406 L 12.113281 -16.808594 L 12.003906 -16.808594 L 12.003906 -16.914062 L 13.3125 -16.914062 L 13.3125 -13.207031 L 13.207031 -13.207031 L 13.207031 -13.3125 L 14.515625 -13.3125 L 14.515625 -10.804688 L 14.40625 -10.804688 L 14.40625 -10.914062 L 15.714844 -10.914062 L 15.714844 -9.496094 L 7.097656 -9.496094 L 7.097656 -10.914062 L 8.402344 -10.914062 L 8.402344 -10.804688 L 8.296875 -10.804688 L 8.296875 -13.3125 L 9.605469 -13.3125 L 9.605469 -13.207031 L 9.496094 -13.207031 L 9.496094 -15.714844 L 10.804688 -15.714844 L 10.804688 -15.605469 L 10.699219 -15.605469 L 10.699219 -19.316406 Z M 12.113281 -19.316406 "/></g></g></g><g fill="#ffffff" fill-opacity="1"><g transform="translate(165.274353, 31.558057)"><g><path d="M 1.199219 -24.117188 L 21.71875 -24.117188 L 21.71875 -16.699219 L 20.300781 -16.699219 L 20.300781 -19.207031 L 20.410156 -19.207031 L 20.410156 -19.101562 L 19.101562 -19.101562 L 19.101562 -21.609375 L 19.207031 -21.609375 L 19.207031 -21.503906 L 17.902344 -21.503906 L 17.902344 -22.8125 L 18.007812 -22.8125 L 18.007812 -22.703125 L 12.003906 -22.703125 L 12.003906 -22.8125 L 12.113281 -22.8125 L 12.113281 -21.609375 L 12.003906 -21.609375 L 12.003906 -21.71875 L 13.3125 -21.71875 L 13.3125 -2.402344 L 13.207031 -2.402344 L 13.207031 -2.507812 L 14.515625 -2.507812 L 14.515625 -1.199219 L 14.40625 -1.199219 L 14.40625 -1.308594 L 16.914062 -1.308594 L 16.914062 0.105469 L 5.894531 0.105469 L 5.894531 -1.308594 L 8.402344 -1.308594 L 8.402344 -1.199219 L 8.296875 -1.199219 L 8.296875 -2.507812 L 9.605469 -2.507812 L 9.605469 -2.402344 L 9.496094 -2.402344 L 9.496094 -22.8125 L 9.605469 -22.8125 L 9.605469 -22.703125 L 6.003906 -22.703125 L 6.003906 -22.8125 L 6.109375 -22.8125 L 6.109375 -21.503906 L 3.601562 -21.503906 L 3.601562 -21.609375 L 3.707031 -21.609375 L 3.707031 -20.300781 L 2.402344 -20.300781 L 2.402344 -20.410156 L 2.507812 -20.410156 L 2.507812 -16.699219 L 1.09375 -16.699219 L 1.09375 -24.117188 Z M 1.199219 -23.902344 L 1.199219 -24.011719 L 1.308594 -24.011719 L 1.308594 -16.808594 L 1.199219 -16.808594 L 1.199219 -16.914062 L 2.402344 -16.914062 L 2.402344 -16.808594 L 2.292969 -16.808594 L 2.292969 -20.515625 L 3.601562 -20.515625 L 3.601562 -20.410156 L 3.496094 -20.410156 L 3.496094 -21.71875 L 6.003906 -21.71875 L 6.003906 -21.609375 L 5.894531 -21.609375 L 5.894531 -22.917969 L 9.710938 -22.917969 L 9.710938 -2.292969 L 8.402344 -2.292969 L 8.402344 -2.402344 L 8.511719 -2.402344 L 8.511719 -1.09375 L 6.003906 -1.09375 L 6.003906 -1.199219 L 6.109375 -1.199219 L 6.109375 0 L 6.003906 0 L 6.003906 -0.105469 L 16.808594 -0.105469 L 16.808594 0 L 16.699219 0 L 16.699219 -1.199219 L 16.808594 -1.199219 L 16.808594 -1.09375 L 14.300781 -1.09375 L 14.300781 -2.402344 L 14.40625 -2.402344 L 14.40625 -2.292969 L 13.097656 -2.292969 L 13.097656 -21.609375 L 13.207031 -21.609375 L 13.207031 -21.503906 L 11.898438 -21.503906 L 11.898438 -22.917969 L 18.117188 -22.917969 L 18.117188 -21.609375 L 18.007812 -21.609375 L 18.007812 -21.71875 L 19.316406 -21.71875 L 19.316406 -19.207031 L 19.207031 -19.207031 L 19.207031 -19.316406 L 20.515625 -19.316406 L 20.515625 -16.808594 L 20.410156 -16.808594 L 20.410156 -16.914062 L 21.609375 -16.914062 L 21.609375 -16.808594 L 21.503906 -16.808594 L 21.503906 -24.011719 L 21.609375 -24.011719 L 21.609375 -23.902344 Z M 1.199219 -23.902344 "/></g></g></g><g fill="#ffffff" fill-opacity="1"><g transform="translate(188.081608, 31.558057)"><g><path d="M 7.203125 -2.292969 L 6.003906 -2.292969 L 6.003906 -2.402344 L 6.109375 -2.402344 L 6.109375 -1.199219 L 6.003906 -1.199219 L 6.003906 -1.308594 L 15.605469 -1.308594 L 15.605469 -1.199219 L 15.5 -1.199219 L 15.5 -2.507812 L 18.007812 -2.507812 L 18.007812 -2.402344 L 17.902344 -2.402344 L 17.902344 -4.910156 L 19.207031 -4.910156 L 19.207031 -4.800781 L 19.101562 -4.800781 L 19.101562 -7.3125 L 20.410156 -7.3125 L 20.410156 -7.203125 L 20.300781 -7.203125 L 20.300781 -8.511719 L 21.71875 -8.511719 L 21.71875 -5.894531 L 20.410156 -5.894531 L 20.410156 -6.003906 L 20.515625 -6.003906 L 20.515625 0.105469 L 1.09375 0.105469 L 1.09375 -1.308594 L 3.601562 -1.308594 L 3.601562 -1.199219 L 3.496094 -1.199219 L 3.496094 -22.8125 L 3.601562 -22.8125 L 3.601562 -22.703125 L 1.09375 -22.703125 L 1.09375 -24.117188 L 20.515625 -24.117188 L 20.515625 -15.5 L 19.101562 -15.5 L 19.101562 -19.207031 L 19.207031 -19.207031 L 19.207031 -19.101562 L 17.902344 -19.101562 L 17.902344 -21.609375 L 18.007812 -21.609375 L 18.007812 -21.503906 L 15.5 -21.503906 L 15.5 -22.8125 L 15.605469 -22.8125 L 15.605469 -22.703125 L 6.003906 -22.703125 L 6.003906 -22.8125 L 6.109375 -22.8125 L 6.109375 -21.609375 L 6.003906 -21.609375 L 6.003906 -21.71875 L 7.3125 -21.71875 L 7.3125 -13.207031 L 7.203125 -13.207031 L 7.203125 -13.3125 L 13.207031 -13.3125 L 13.207031 -13.207031 L 13.097656 -13.207031 L 13.097656 -14.515625 L 14.40625 -14.515625 L 14.40625 -14.40625 L 14.300781 -14.40625 L 14.300781 -16.914062 L 15.714844 -16.914062 L 15.714844 -7.097656 L 14.300781 -7.097656 L 14.300781 -9.605469 L 14.40625 -9.605469 L 14.40625 -9.496094 L 13.097656 -9.496094 L 13.097656 -10.804688 L 13.207031 -10.804688 L 13.207031 -10.699219 L 11.898438 -10.699219 L 11.898438 -12.003906 L 12.003906 -12.003906 L 12.003906 -11.898438 L 7.203125 -11.898438 L 7.203125 -12.003906 L 7.3125 -12.003906 L 7.3125 -2.292969 Z M 7.203125 -2.507812 L 7.203125 -2.402344 L 7.097656 -2.402344 L 7.097656 -12.113281 L 12.113281 -12.113281 L 12.113281 -10.804688 L 12.003906 -10.804688 L 12.003906 -10.914062 L 13.3125 -10.914062 L 13.3125 -9.605469 L 13.207031 -9.605469 L 13.207031 -9.710938 L 14.515625 -9.710938 L 14.515625 -7.203125 L 14.40625 -7.203125 L 14.40625 -7.3125 L 15.605469 -7.3125 L 15.605469 -7.203125 L 15.5 -7.203125 L 15.5 -16.808594 L 15.605469 -16.808594 L 15.605469 -16.699219 L 14.40625 -16.699219 L 14.40625 -16.808594 L 14.515625 -16.808594 L 14.515625 -14.300781 L 13.207031 -14.300781 L 13.207031 -14.40625 L 13.3125 -14.40625 L 13.3125 -13.097656 L 7.097656 -13.097656 L 7.097656 -21.609375 L 7.203125 -21.609375 L 7.203125 -21.503906 L 5.894531 -21.503906 L 5.894531 -22.917969 L 15.714844 -22.917969 L 15.714844 -21.609375 L 15.605469 -21.609375 L 15.605469 -21.71875 L 18.117188 -21.71875 L 18.117188 -19.207031 L 18.007812 -19.207031 L 18.007812 -19.316406 L 19.316406 -19.316406 L 19.316406 -15.605469 L 19.207031 -15.605469 L 19.207031 -15.714844 L 20.410156 -15.714844 L 20.410156 -15.605469 L 20.300781 -15.605469 L 20.300781 -24.011719 L 20.410156 -24.011719 L 20.410156 -23.902344 L 1.199219 -23.902344 L 1.199219 -24.011719 L 1.308594 -24.011719 L 1.308594 -22.8125 L 1.199219 -22.8125 L 1.199219 -22.917969 L 3.707031 -22.917969 L 3.707031 -1.09375 L 1.199219 -1.09375 L 1.199219 -1.199219 L 1.308594 -1.199219 L 1.308594 0 L 1.199219 0 L 1.199219 -0.105469 L 20.410156 -0.105469 L 20.410156 0 L 20.300781 0 L 20.300781 -6.109375 L 21.609375 -6.109375 L 21.609375 -6.003906 L 21.503906 -6.003906 L 21.503906 -8.402344 L 21.609375 -8.402344 L 21.609375 -8.296875 L 20.410156 -8.296875 L 20.410156 -8.402344 L 20.515625 -8.402344 L 20.515625 -7.097656 L 19.207031 -7.097656 L 19.207031 -7.203125 L 19.316406 -7.203125 L 19.316406 -4.695312 L 18.007812 -4.695312 L 18.007812 -4.800781 L 18.117188 -4.800781 L 18.117188 -2.292969 L 15.605469 -2.292969 L 15.605469 -2.402344 L 15.714844 -2.402344 L 15.714844 -1.09375 L 5.894531 -1.09375 L 5.894531 -2.507812 Z M 7.203125 -2.507812 "/></g></g></g><g fill="#ffffff" fill-opacity="1"><g transform="translate(210.888863, 31.558057)"><g><path d="M 10.914062 -1.199219 L 10.914062 0.105469 L 1.09375 0.105469 L 1.09375 -1.308594 L 3.601562 -1.308594 L 3.601562 -1.199219 L 3.496094 -1.199219 L 3.496094 -22.8125 L 3.601562 -22.8125 L 3.601562 -22.703125 L 1.09375 -22.703125 L 1.09375 -24.117188 L 10.914062 -24.117188 L 10.914062 -22.703125 L 8.402344 -22.703125 L 8.402344 -22.8125 L 8.511719 -22.8125 L 8.511719 -21.503906 L 7.203125 -21.503906 L 7.203125 -21.609375 L 7.3125 -21.609375 L 7.3125 -2.402344 L 7.203125 -2.402344 L 7.203125 -2.507812 L 8.511719 -2.507812 L 8.511719 -1.199219 L 8.402344 -1.199219 L 8.402344 -1.308594 L 10.914062 -1.308594 Z M 10.699219 -1.199219 L 10.804688 -1.199219 L 10.804688 -1.09375 L 8.296875 -1.09375 L 8.296875 -2.402344 L 8.402344 -2.402344 L 8.402344 -2.292969 L 7.097656 -2.292969 L 7.097656 -21.71875 L 8.402344 -21.71875 L 8.402344 -21.609375 L 8.296875 -21.609375 L 8.296875 -22.917969 L 10.804688 -22.917969 L 10.804688 -22.8125 L 10.699219 -22.8125 L 10.699219 -24.011719 L 10.804688 -24.011719 L 10.804688 -23.902344 L 1.199219 -23.902344 L 1.199219 -24.011719 L 1.308594 -24.011719 L 1.308594 -22.8125 L 1.199219 -22.8125 L 1.199219 -22.917969 L 3.707031 -22.917969 L 3.707031 -1.09375 L 1.199219 -1.09375 L 1.199219 -1.199219 L 1.308594 -1.199219 L 1.308594 0 L 1.199219 0 L 1.199219 -0.105469 L 10.804688 -0.105469 L 10.804688 0 L 10.699219 0 Z M 10.699219 -1.199219 "/></g></g></g><g fill="#ffffff" fill-opacity="1"><g transform="translate(222.892683, 31.558057)"><g><path d="M 7.3125 -10.804688 L 7.3125 -2.402344 L 7.203125 -2.402344 L 7.203125 -2.507812 L 8.511719 -2.507812 L 8.511719 -1.199219 L 8.402344 -1.199219 L 8.402344 -1.308594 L 10.914062 -1.308594 L 10.914062 0.105469 L 1.09375 0.105469 L 1.09375 -1.308594 L 3.601562 -1.308594 L 3.601562 -1.199219 L 3.496094 -1.199219 L 3.496094 -22.8125 L 3.601562 -22.8125 L 3.601562 -22.703125 L 1.09375 -22.703125 L 1.09375 -24.117188 L 15.714844 -24.117188 L 15.714844 -22.8125 L 15.605469 -22.8125 L 15.605469 -22.917969 L 18.117188 -22.917969 L 18.117188 -21.609375 L 18.007812 -21.609375 L 18.007812 -21.71875 L 19.316406 -21.71875 L 19.316406 -20.410156 L 19.207031 -20.410156 L 19.207031 -20.515625 L 20.515625 -20.515625 L 20.515625 -16.699219 L 19.207031 -16.699219 L 19.207031 -16.808594 L 19.316406 -16.808594 L 19.316406 -14.300781 L 18.007812 -14.300781 L 18.007812 -14.40625 L 18.117188 -14.40625 L 18.117188 -13.097656 L 16.808594 -13.097656 L 16.808594 -13.207031 L 16.914062 -13.207031 L 16.914062 -11.898438 L 15.605469 -11.898438 L 15.605469 -12.003906 L 15.714844 -12.003906 L 15.714844 -10.804688 L 15.605469 -10.804688 L 15.605469 -10.914062 L 16.914062 -10.914062 L 16.914062 -9.605469 L 16.808594 -9.605469 L 16.808594 -9.710938 L 18.117188 -9.710938 L 18.117188 -7.203125 L 18.007812 -7.203125 L 18.007812 -7.3125 L 19.316406 -7.3125 L 19.316406 -4.800781 L 19.207031 -4.800781 L 19.207031 -4.910156 L 20.515625 -4.910156 L 20.515625 -2.402344 L 20.410156 -2.402344 L 20.410156 -2.507812 L 21.71875 -2.507812 L 21.71875 -1.199219 L 21.609375 -1.199219 L 21.609375 -1.308594 L 24.117188 -1.308594 L 24.117188 0.105469 L 17.902344 0.105469 L 17.902344 -1.199219 L 18.007812 -1.199219 L 18.007812 -1.09375 L 16.699219 -1.09375 L 16.699219 -3.601562 L 16.808594 -3.601562 L 16.808594 -3.496094 L 15.5 -3.496094 L 15.5 -7.203125 L 15.605469 -7.203125 L 15.605469 -7.097656 L 14.300781 -7.097656 L 14.300781 -9.605469 L 14.40625 -9.605469 L 14.40625 -9.496094 L 13.097656 -9.496094 L 13.097656 -10.804688 L 13.207031 -10.804688 L 13.207031 -10.699219 L 11.898438 -10.699219 L 11.898438 -12.003906 L 12.003906 -12.003906 L 12.003906 -11.898438 L 6.003906 -11.898438 L 6.003906 -12.003906 L 6.109375 -12.003906 L 6.109375 -10.804688 L 6.003906 -10.804688 L 6.003906 -10.914062 L 7.3125 -10.914062 Z M 7.097656 -10.804688 L 7.203125 -10.804688 L 7.203125 -10.699219 L 5.894531 -10.699219 L 5.894531 -12.113281 L 12.113281 -12.113281 L 12.113281 -10.804688 L 12.003906 -10.804688 L 12.003906 -10.914062 L 13.3125 -10.914062 L 13.3125 -9.605469 L 13.207031 -9.605469 L 13.207031 -9.710938 L 14.515625 -9.710938 L 14.515625 -7.203125 L 14.40625 -7.203125 L 14.40625 -7.3125 L 15.714844 -7.3125 L 15.714844 -3.601562 L 15.605469 -3.601562 L 15.605469 -3.707031 L 16.914062 -3.707031 L 16.914062 -1.199219 L 16.808594 -1.199219 L 16.808594 -1.308594 L 18.117188 -1.308594 L 18.117188 0 L 18.007812 0 L 18.007812 -0.105469 L 24.011719 -0.105469 L 24.011719 0 L 23.902344 0 L 23.902344 -1.199219 L 24.011719 -1.199219 L 24.011719 -1.09375 L 21.503906 -1.09375 L 21.503906 -2.402344 L 21.609375 -2.402344 L 21.609375 -2.292969 L 20.300781 -2.292969 L 20.300781 -4.800781 L 20.410156 -4.800781 L 20.410156 -4.695312 L 19.101562 -4.695312 L 19.101562 -7.203125 L 19.207031 -7.203125 L 19.207031 -7.097656 L 17.902344 -7.097656 L 17.902344 -9.605469 L 18.007812 -9.605469 L 18.007812 -9.496094 L 16.699219 -9.496094 L 16.699219 -10.804688 L 16.808594 -10.804688 L 16.808594 -10.699219 L 15.5 -10.699219 L 15.5 -12.113281 L 16.808594 -12.113281 L 16.808594 -12.003906 L 16.699219 -12.003906 L 16.699219 -13.3125 L 18.007812 -13.3125 L 18.007812 -13.207031 L 17.902344 -13.207031 L 17.902344 -14.515625 L 19.207031 -14.515625 L 19.207031 -14.40625 L 19.101562 -14.40625 L 19.101562 -16.914062 L 20.410156 -16.914062 L 20.410156 -16.808594 L 20.300781 -16.808594 L 20.300781 -20.410156 L 20.410156 -20.410156 L 20.410156 -20.300781 L 19.101562 -20.300781 L 19.101562 -21.609375 L 19.207031 -21.609375 L 19.207031 -21.503906 L 17.902344 -21.503906 L 17.902344 -22.8125 L 18.007812 -22.8125 L 18.007812 -22.703125 L 15.5 -22.703125 L 15.5 -24.011719 L 15.605469 -24.011719 L 15.605469 -23.902344 L 1.199219 -23.902344 L 1.199219 -24.011719 L 1.308594 -24.011719 L 1.308594 -22.8125 L 1.199219 -22.8125 L 1.199219 -22.917969 L 3.707031 -22.917969 L 3.707031 -1.09375 L 1.199219 -1.09375 L 1.199219 -1.199219 L 1.308594 -1.199219 L 1.308594 0 L 1.199219 0 L 1.199219 -0.105469 L 10.804688 -0.105469 L 10.804688 0 L 10.699219 0 L 10.699219 -1.199219 L 10.804688 -1.199219 L 10.804688 -1.09375 L 8.296875 -1.09375 L 8.296875 -2.402344 L 8.402344 -2.402344 L 8.402344 -2.292969 L 7.097656 -2.292969 Z M 7.203125 -13.3125 L 14.40625 -13.3125 L 14.40625 -13.207031 L 14.300781 -13.207031 L 14.300781 -14.515625 L 15.605469 -14.515625 L 15.605469 -14.40625 L 15.5 -14.40625 L 15.5 -15.714844 L 16.808594 -15.714844 L 16.808594 -15.605469 L 16.699219 -15.605469 L 16.699219 -19.207031 L 16.808594 -19.207031 L 16.808594 -19.101562 L 15.5 -19.101562 L 15.5 -21.609375 L 15.605469 -21.609375 L 15.605469 -21.503906 L 14.300781 -21.503906 L 14.300781 -22.8125 L 14.40625 -22.8125 L 14.40625 -22.703125 L 6.003906 -22.703125 L 6.003906 -22.8125 L 6.109375 -22.8125 L 6.109375 -21.609375 L 6.003906 -21.609375 L 6.003906 -21.71875 L 7.3125 -21.71875 L 7.3125 -13.207031 L 7.203125 -13.207031 Z M 7.097656 -13.097656 L 7.097656 -21.609375 L 7.203125 -21.609375 L 7.203125 -21.503906 L 5.894531 -21.503906 L 5.894531 -22.917969 L 14.515625 -22.917969 L 14.515625 -21.609375 L 14.40625 -21.609375 L 14.40625 -21.71875 L 15.714844 -21.71875 L 15.714844 -19.207031 L 15.605469 -19.207031 L 15.605469 -19.316406 L 16.914062 -19.316406 L 16.914062 -15.5 L 15.605469 -15.5 L 15.605469 -15.605469 L 15.714844 -15.605469 L 15.714844 -14.300781 L 14.40625 -14.300781 L 14.40625 -14.40625 L 14.515625 -14.40625 L 14.515625 -13.097656 Z M 7.097656 -13.097656 "/></g></g></g></g></g></g><g clip-path="url(#a90a22f228)"><g transform="matrix(1, 0, 0, 1, 0, -0.000000000000007105)"><g clip-path="url(#196b29f88c)"><g clip-path="url(#7b6922aeaa)"><g fill="#ffffff" fill-opacity="1"><g transform="translate(0.21126, 31.741398)"><g><path d="M 7.203125 -1.203125 L 7.203125 0 L 0 0 L 0 -1.203125 L 2.40625 -1.203125 L 2.40625 -2.40625 L 3.59375 -2.40625 L 3.59375 -6 L 4.796875 -6 L 4.796875 -8.40625 L 6 -8.40625 L 6 -10.796875 L 7.203125 -10.796875 L 7.203125 -13.203125 L 8.40625 -13.203125 L 8.40625 -16.8125 L 9.609375 -16.8125 L 9.609375 -19.203125 L 10.796875 -19.203125 L 10.796875 -22.8125 L 12 -22.8125 L 12 -25.203125 L 13.203125 -25.203125 L 13.203125 -22.8125 L 14.40625 -22.8125 L 14.40625 -20.40625 L 15.609375 -20.40625 L 15.609375 -16.8125 L 16.8125 -16.8125 L 16.8125 -14.40625 L 18 -14.40625 L 18 -10.796875 L 19.203125 -10.796875 L 19.203125 -8.40625 L 20.40625 -8.40625 L 20.40625 -6 L 21.609375 -6 L 21.609375 -3.59375 L 22.8125 -3.59375 L 22.8125 -1.203125 L 25.203125 -1.203125 L 25.203125 0 L 15.609375 0 L 15.609375 -1.203125 L 18 -1.203125 L 18 -4.796875 L 16.8125 -4.796875 L 16.8125 -8.40625 L 7.203125 -8.40625 L 7.203125 -7.203125 L 6 -7.203125 L 6 -4.796875 L 4.796875 -4.796875 L 4.796875 -1.203125 Z M 12 -19.203125 L 10.796875 -19.203125 L 10.796875 -15.609375 L 9.609375 -15.609375 L 9.609375 -13.203125 L 8.40625 -13.203125 L 8.40625 -10.796875 L 7.203125 -10.796875 L 7.203125 -9.609375 L 15.609375 -9.609375 L 15.609375 -10.796875 L 14.40625 -10.796875 L 14.40625 -13.203125 L 13.203125 -13.203125 L 13.203125 -16.8125 L 12 -16.8125 Z M 12 -19.203125 "/></g></g></g></g><g fill="#ffffff" fill-opacity="1"><g transform="translate(25.419287, 31.741398)"><g><path d="M 7.203125 -10.796875 L 7.203125 -2.40625 L 8.40625 -2.40625 L 8.40625 -1.203125 L 10.796875 -1.203125 L 10.796875 0 L 1.203125 0 L 1.203125 -1.203125 L 3.59375 -1.203125 L 3.59375 -22.8125 L 1.203125 -22.8125 L 1.203125 -24.015625 L 15.609375 -24.015625 L 15.609375 -22.8125 L 18 -22.8125 L 18 -21.609375 L 19.203125 -21.609375 L 19.203125 -20.40625 L 20.40625 -20.40625 L 20.40625 -16.8125 L 19.203125 -16.8125 L 19.203125 -14.40625 L 18 -14.40625 L 18 -13.203125 L 16.8125 -13.203125 L 16.8125 -12 L 15.609375 -12 L 15.609375 -10.796875 L 16.8125 -10.796875 L 16.8125 -9.609375 L 18 -9.609375 L 18 -7.203125 L 19.203125 -7.203125 L 19.203125 -4.796875 L 20.40625 -4.796875 L 20.40625 -2.40625 L 21.609375 -2.40625 L 21.609375 -1.203125 L 24.015625 -1.203125 L 24.015625 0 L 18 0 L 18 -1.203125 L 16.8125 -1.203125 L 16.8125 -3.59375 L 15.609375 -3.59375 L 15.609375 -7.203125 L 14.40625 -7.203125 L 14.40625 -9.609375 L 13.203125 -9.609375 L 13.203125 -10.796875 L 12 -10.796875 L 12 -12 L 6 -12 L 6 -10.796875 Z M 7.203125 -13.203125 L 14.40625 -13.203125 L 14.40625 -14.40625 L 15.609375 -14.40625 L 15.609375 -15.609375 L 16.8125 -15.609375 L 16.8125 -19.203125 L 15.609375 -19.203125 L 15.609375 -21.609375 L 14.40625 -21.609375 L 14.40625 -22.8125 L 6 -22.8125 L 6 -21.609375 L 7.203125 -21.609375 Z M 7.203125 -13.203125 "/></g></g></g><g fill="#ffffff" fill-opacity="1"><g transform="translate(49.426928, 31.741398)"><g><path d="M 7.203125 -2.40625 L 6 -2.40625 L 6 -1.203125 L 15.609375 -1.203125 L 15.609375 -2.40625 L 18 -2.40625 L 18 -4.796875 L 19.203125 -4.796875 L 19.203125 -7.203125 L 20.40625 -7.203125 L 20.40625 -8.40625 L 21.609375 -8.40625 L 21.609375 -6 L 20.40625 -6 L 20.40625 0 L 1.203125 0 L 1.203125 -1.203125 L 3.59375 -1.203125 L 3.59375 -22.8125 L 1.203125 -22.8125 L 1.203125 -24.015625 L 20.40625 -24.015625 L 20.40625 -15.609375 L 19.203125 -15.609375 L 19.203125 -19.203125 L 18 -19.203125 L 18 -21.609375 L 15.609375 -21.609375 L 15.609375 -22.8125 L 6 -22.8125 L 6 -21.609375 L 7.203125 -21.609375 L 7.203125 -13.203125 L 13.203125 -13.203125 L 13.203125 -14.40625 L 14.40625 -14.40625 L 14.40625 -16.8125 L 15.609375 -16.8125 L 15.609375 -7.203125 L 14.40625 -7.203125 L 14.40625 -9.609375 L 13.203125 -9.609375 L 13.203125 -10.796875 L 12 -10.796875 L 12 -12 L 7.203125 -12 Z M 7.203125 -2.40625 "/></g></g></g><g fill="#ffffff" fill-opacity="1"><g transform="translate(72.234183, 31.741398)"><g><path d="M 16.8125 -1.203125 L 16.8125 0 L 8.40625 0 L 8.40625 -1.203125 L 6 -1.203125 L 6 -2.40625 L 4.796875 -2.40625 L 4.796875 -3.59375 L 3.59375 -3.59375 L 3.59375 -4.796875 L 2.40625 -4.796875 L 2.40625 -7.203125 L 1.203125 -7.203125 L 1.203125 -15.609375 L 2.40625 -15.609375 L 2.40625 -19.203125 L 3.59375 -19.203125 L 3.59375 -20.40625 L 4.796875 -20.40625 L 4.796875 -21.609375 L 6 -21.609375 L 6 -22.8125 L 8.40625 -22.8125 L 8.40625 -24.015625 L 16.8125 -24.015625 L 16.8125 -22.8125 L 18 -22.8125 L 18 -21.609375 L 19.203125 -21.609375 L 19.203125 -24.015625 L 21.609375 -24.015625 L 21.609375 -15.609375 L 20.40625 -15.609375 L 20.40625 -16.8125 L 19.203125 -16.8125 L 19.203125 -19.203125 L 18 -19.203125 L 18 -20.40625 L 16.8125 -20.40625 L 16.8125 -21.609375 L 15.609375 -21.609375 L 15.609375 -22.8125 L 9.609375 -22.8125 L 9.609375 -21.609375 L 8.40625 -21.609375 L 8.40625 -20.40625 L 7.203125 -20.40625 L 7.203125 -19.203125 L 6 -19.203125 L 6 -15.609375 L 4.796875 -15.609375 L 4.796875 -9.609375 L 6 -9.609375 L 6 -6 L 7.203125 -6 L 7.203125 -3.59375 L 8.40625 -3.59375 L 8.40625 -2.40625 L 10.796875 -2.40625 L 10.796875 -1.203125 L 15.609375 -1.203125 L 15.609375 -2.40625 L 18 -2.40625 L 18 -3.59375 L 19.203125 -3.59375 L 19.203125 -4.796875 L 20.40625 -4.796875 L 20.40625 -3.59375 L 19.203125 -3.59375 L 19.203125 -2.40625 L 18 -2.40625 L 18 -1.203125 Z M 16.8125 -1.203125 "/></g></g></g><g fill="#ffffff" fill-opacity="1"><g transform="translate(95.041438, 31.741398)"><g><path d="M 18 -1.203125 L 18 0 L 8.40625 0 L 8.40625 -1.203125 L 6 -1.203125 L 6 -2.40625 L 4.796875 -2.40625 L 4.796875 -6 L 3.59375 -6 L 3.59375 -22.8125 L 1.203125 -22.8125 L 1.203125 -24.015625 L 10.796875 -24.015625 L 10.796875 -22.8125 L 8.40625 -22.8125 L 8.40625 -21.609375 L 7.203125 -21.609375 L 7.203125 -6 L 8.40625 -6 L 8.40625 -3.59375 L 9.609375 -3.59375 L 9.609375 -2.40625 L 13.203125 -2.40625 L 13.203125 -1.203125 L 15.609375 -1.203125 L 15.609375 -2.40625 L 18 -2.40625 L 18 -3.59375 L 19.203125 -3.59375 L 19.203125 -6 L 20.40625 -6 L 20.40625 -21.609375 L 19.203125 -21.609375 L 19.203125 -22.8125 L 16.8125 -22.8125 L 16.8125 -24.015625 L 25.203125 -24.015625 L 25.203125 -22.8125 L 22.8125 -22.8125 L 22.8125 -7.203125 L 21.609375 -7.203125 L 21.609375 -3.59375 L 20.40625 -3.59375 L 20.40625 -2.40625 L 19.203125 -2.40625 L 19.203125 -1.203125 Z M 18 -1.203125 "/></g></g></g><g fill="#ffffff" fill-opacity="1"><g transform="translate(121.44985, 31.741398)"><g><path d="M 20.40625 0 L 0 0 L 0 -1.203125 L 3.59375 -1.203125 L 3.59375 -22.8125 L 0 -22.8125 L 0 -24.015625 L 10.796875 -24.015625 L 10.796875 -22.8125 L 8.40625 -22.8125 L 8.40625 -21.609375 L 7.203125 -21.609375 L 7.203125 -2.40625 L 6 -2.40625 L 6 -1.203125 L 15.609375 -1.203125 L 15.609375 -2.40625 L 18 -2.40625 L 18 -4.796875 L 19.203125 -4.796875 L 19.203125 -8.40625 L 20.40625 -8.40625 Z M 20.40625 0 "/></g></g></g><g fill="#ffffff" fill-opacity="1"><g transform="translate(141.856176, 31.741398)"><g><path d="M 7.203125 -1.203125 L 7.203125 0 L 0 0 L 0 -1.203125 L 2.40625 -1.203125 L 2.40625 -2.40625 L 3.59375 -2.40625 L 3.59375 -6 L 4.796875 -6 L 4.796875 -8.40625 L 6 -8.40625 L 6 -10.796875 L 7.203125 -10.796875 L 7.203125 -13.203125 L 8.40625 -13.203125 L 8.40625 -16.8125 L 9.609375 -16.8125 L 9.609375 -19.203125 L 10.796875 -19.203125 L 10.796875 -22.8125 L 12 -22.8125 L 12 -25.203125 L 13.203125 -25.203125 L 13.203125 -22.8125 L 14.40625 -22.8125 L 14.40625 -20.40625 L 15.609375 -20.40625 L 15.609375 -16.8125 L 16.8125 -16.8125 L 16.8125 -14.40625 L 18 -14.40625 L 18 -10.796875 L 19.203125 -10.796875 L 19.203125 -8.40625 L 20.40625 -8.40625 L 20.40625 -6 L 21.609375 -6 L 21.609375 -3.59375 L 22.8125 -3.59375 L 22.8125 -1.203125 L 25.203125 -1.203125 L 25.203125 0 L 15.609375 0 L 15.609375 -1.203125 L 18 -1.203125 L 18 -4.796875 L 16.8125 -4.796875 L 16.8125 -8.40625 L 7.203125 -8.40625 L 7.203125 -7.203125 L 6 -7.203125 L 6 -4.796875 L 4.796875 -4.796875 L 4.796875 -1.203125 Z M 12 -19.203125 L 10.796875 -19.203125 L 10.796875 -15.609375 L 9.609375 -15.609375 L 9.609375 -13.203125 L 8.40625 -13.203125 L 8.40625 -10.796875 L 7.203125 -10.796875 L 7.203125 -9.609375 L 15.609375 -9.609375 L 15.609375 -10.796875 L 14.40625 -10.796875 L 14.40625 -13.203125 L 13.203125 -13.203125 L 13.203125 -16.8125 L 12 -16.8125 Z M 12 -19.203125 "/></g></g></g><g fill="#ffffff" fill-opacity="1"><g transform="translate(163.462534, 31.741398)"><g><path d="M 1.203125 -24.015625 L 21.609375 -24.015625 L 21.609375 -16.8125 L 20.40625 -16.8125 L 20.40625 -19.203125 L 19.203125 -19.203125 L 19.203125 -21.609375 L 18 -21.609375 L 18 -22.8125 L 12 -22.8125 L 12 -21.609375 L 13.203125 -21.609375 L 13.203125 -2.40625 L 14.40625 -2.40625 L 14.40625 -1.203125 L 16.8125 -1.203125 L 16.8125 0 L 6 0 L 6 -1.203125 L 8.40625 -1.203125 L 8.40625 -2.40625 L 9.609375 -2.40625 L 9.609375 -22.8125 L 6 -22.8125 L 6 -21.609375 L 3.59375 -21.609375 L 3.59375 -20.40625 L 2.40625 -20.40625 L 2.40625 -16.8125 L 1.203125 -16.8125 Z M 1.203125 -24.015625 "/></g></g></g><g fill="#ffffff" fill-opacity="1"><g transform="translate(186.269789, 31.741398)"><g><path d="M 7.203125 -2.40625 L 6 -2.40625 L 6 -1.203125 L 15.609375 -1.203125 L 15.609375 -2.40625 L 18 -2.40625 L 18 -4.796875 L 19.203125 -4.796875 L 19.203125 -7.203125 L 20.40625 -7.203125 L 20.40625 -8.40625 L 21.609375 -8.40625 L 21.609375 -6 L 20.40625 -6 L 20.40625 0 L 1.203125 0 L 1.203125 -1.203125 L 3.59375 -1.203125 L 3.59375 -22.8125 L 1.203125 -22.8125 L 1.203125 -24.015625 L 20.40625 -24.015625 L 20.40625 -15.609375 L 19.203125 -15.609375 L 19.203125 -19.203125 L 18 -19.203125 L 18 -21.609375 L 15.609375 -21.609375 L 15.609375 -22.8125 L 6 -22.8125 L 6 -21.609375 L 7.203125 -21.609375 L 7.203125 -13.203125 L 13.203125 -13.203125 L 13.203125 -14.40625 L 14.40625 -14.40625 L 14.40625 -16.8125 L 15.609375 -16.8125 L 15.609375 -7.203125 L 14.40625 -7.203125 L 14.40625 -9.609375 L 13.203125 -9.609375 L 13.203125 -10.796875 L 12 -10.796875 L 12 -12 L 7.203125 -12 Z M 7.203125 -2.40625 "/></g></g></g><g fill="#ffffff" fill-opacity="1"><g transform="translate(209.077044, 31.741398)"><g><path d="M 10.796875 -1.203125 L 10.796875 0 L 1.203125 0 L 1.203125 -1.203125 L 3.59375 -1.203125 L 3.59375 -22.8125 L 1.203125 -22.8125 L 1.203125 -24.015625 L 10.796875 -24.015625 L 10.796875 -22.8125 L 8.40625 -22.8125 L 8.40625 -21.609375 L 7.203125 -21.609375 L 7.203125 -2.40625 L 8.40625 -2.40625 L 8.40625 -1.203125 Z M 10.796875 -1.203125 "/></g></g></g><g fill="#ffffff" fill-opacity="1"><g transform="translate(221.080864, 31.741398)"><g><path d="M 7.203125 -10.796875 L 7.203125 -2.40625 L 8.40625 -2.40625 L 8.40625 -1.203125 L 10.796875 -1.203125 L 10.796875 0 L 1.203125 0 L 1.203125 -1.203125 L 3.59375 -1.203125 L 3.59375 -22.8125 L 1.203125 -22.8125 L 1.203125 -24.015625 L 15.609375 -24.015625 L 15.609375 -22.8125 L 18 -22.8125 L 18 -21.609375 L 19.203125 -21.609375 L 19.203125 -20.40625 L 20.40625 -20.40625 L 20.40625 -16.8125 L 19.203125 -16.8125 L 19.203125 -14.40625 L 18 -14.40625 L 18 -13.203125 L 16.8125 -13.203125 L 16.8125 -12 L 15.609375 -12 L 15.609375 -10.796875 L 16.8125 -10.796875 L 16.8125 -9.609375 L 18 -9.609375 L 18 -7.203125 L 19.203125 -7.203125 L 19.203125 -4.796875 L 20.40625 -4.796875 L 20.40625 -2.40625 L 21.609375 -2.40625 L 21.609375 -1.203125 L 24.015625 -1.203125 L 24.015625 0 L 18 0 L 18 -1.203125 L 16.8125 -1.203125 L 16.8125 -3.59375 L 15.609375 -3.59375 L 15.609375 -7.203125 L 14.40625 -7.203125 L 14.40625 -9.609375 L 13.203125 -9.609375 L 13.203125 -10.796875 L 12 -10.796875 L 12 -12 L 6 -12 L 6 -10.796875 Z M 7.203125 -13.203125 L 14.40625 -13.203125 L 14.40625 -14.40625 L 15.609375 -14.40625 L 15.609375 -15.609375 L 16.8125 -15.609375 L 16.8125 -19.203125 L 15.609375 -19.203125 L 15.609375 -21.609375 L 14.40625 -21.609375 L 14.40625 -22.8125 L 6 -22.8125 L 6 -21.609375 L 7.203125 -21.609375 Z M 7.203125 -13.203125 "/></g></g></g></g></g></g><g clip-path="url(#9fd61c1e98)"><g transform="matrix(1, 0, 0, 1, 248, 12)"><g clip-path="url(#6336e3289d)"><g clip-path="url(#e68feb7cd8)"><g fill="#ed7939" fill-opacity="1"><g transform="translate(1.884175, 20.254931)"><g><path d="M 8.40625 -18.484375 L 8.671875 -2.265625 L 8.734375 -2.265625 L 18.03125 -18.484375 L 21.984375 -18.484375 L 21.84375 -18 C 21.3125 -18 20.898438 -17.957031 20.609375 -17.875 C 20.316406 -17.789062 20.09375 -17.628906 19.9375 -17.390625 C 19.789062 -17.148438 19.660156 -16.800781 19.546875 -16.34375 L 16.078125 -2.15625 C 15.972656 -1.6875 15.925781 -1.332031 15.9375 -1.09375 C 15.957031 -0.851562 16.125 -0.691406 16.4375 -0.609375 C 16.757812 -0.523438 17.304688 -0.484375 18.078125 -0.484375 L 17.90625 0 L 12.0625 0 L 12.21875 -0.484375 C 12.8125 -0.484375 13.257812 -0.523438 13.5625 -0.609375 C 13.875 -0.691406 14.109375 -0.851562 14.265625 -1.09375 C 14.429688 -1.332031 14.566406 -1.6875 14.671875 -2.15625 L 18.28125 -17.140625 L 18.1875 -17.140625 L 8 0.46875 L 7.34375 0.46875 L 7 -16.921875 L 6.9375 -16.921875 L 2.40625 -2.125 C 2.28125 -1.664062 2.207031 -1.316406 2.1875 -1.078125 C 2.175781 -0.847656 2.304688 -0.691406 2.578125 -0.609375 C 2.847656 -0.523438 3.320312 -0.484375 4 -0.484375 L 3.859375 0 L -1.125 0 L -0.96875 -0.484375 C -0.382812 -0.484375 0.0664062 -0.523438 0.390625 -0.609375 C 0.710938 -0.691406 0.960938 -0.847656 1.140625 -1.078125 C 1.316406 -1.316406 1.476562 -1.664062 1.625 -2.125 L 5.96875 -16.359375 C 6.101562 -16.828125 6.171875 -17.175781 6.171875 -17.40625 C 6.179688 -17.632812 6.054688 -17.789062 5.796875 -17.875 C 5.535156 -17.957031 5.0625 -18 4.375 -18 L 4.5 -18.484375 Z M 8.40625 -18.484375 "/></g></g></g></g><g fill="#ed7939" fill-opacity="1"><g transform="translate(19.649854, 20.254931)"><g><path d="M 7.5625 -0.734375 C 7.882812 -0.734375 8.207031 -0.890625 8.53125 -1.203125 C 8.851562 -1.523438 9.171875 -1.941406 9.484375 -2.453125 C 9.796875 -2.960938 10.085938 -3.507812 10.359375 -4.09375 L 10.84375 -4.09375 C 10.582031 -3.425781 10.242188 -2.769531 9.828125 -2.125 C 9.421875 -1.476562 8.972656 -0.9375 8.484375 -0.5 C 8.003906 -0.0703125 7.503906 0.140625 6.984375 0.140625 C 6.535156 0.140625 6.21875 0.0234375 6.03125 -0.203125 C 5.84375 -0.429688 5.75 -0.71875 5.75 -1.0625 C 5.75 -1.28125 5.796875 -1.507812 5.890625 -1.75 C 5.984375 -2 6.078125 -2.25 6.171875 -2.5 L 7.484375 -6.125 L 7.28125 -6.125 C 7 -5.507812 6.648438 -4.835938 6.234375 -4.109375 C 5.816406 -3.390625 5.363281 -2.703125 4.875 -2.046875 C 4.382812 -1.390625 3.882812 -0.847656 3.375 -0.421875 C 2.863281 -0.00390625 2.378906 0.203125 1.921875 0.203125 C 1.253906 0.203125 0.789062 -0.046875 0.53125 -0.546875 C 0.269531 -1.046875 0.140625 -1.6875 0.140625 -2.46875 C 0.140625 -3.257812 0.273438 -4.109375 0.546875 -5.015625 C 0.816406 -5.921875 1.175781 -6.8125 1.625 -7.6875 C 2.082031 -8.570312 2.601562 -9.367188 3.1875 -10.078125 C 3.769531 -10.796875 4.378906 -11.367188 5.015625 -11.796875 C 5.648438 -12.234375 6.273438 -12.453125 6.890625 -12.453125 C 7.566406 -12.453125 8.066406 -12.222656 8.390625 -11.765625 C 8.710938 -11.316406 8.84375 -10.707031 8.78125 -9.9375 L 8.84375 -9.9375 L 9.546875 -11.859375 C 9.804688 -11.859375 10.046875 -11.921875 10.265625 -12.046875 C 10.492188 -12.179688 10.671875 -12.347656 10.796875 -12.546875 L 11.046875 -12.4375 L 7.421875 -2.46875 C 7.359375 -2.300781 7.285156 -2.101562 7.203125 -1.875 C 7.128906 -1.65625 7.09375 -1.46875 7.09375 -1.3125 C 7.09375 -1.144531 7.125 -1.003906 7.1875 -0.890625 C 7.25 -0.785156 7.375 -0.734375 7.5625 -0.734375 Z M 2.3125 -0.90625 C 2.613281 -0.90625 2.957031 -1.050781 3.34375 -1.34375 C 3.726562 -1.632812 4.125 -2.019531 4.53125 -2.5 C 4.945312 -2.976562 5.347656 -3.507812 5.734375 -4.09375 C 6.117188 -4.675781 6.460938 -5.265625 6.765625 -5.859375 C 7.078125 -6.460938 7.328125 -7.019531 7.515625 -7.53125 C 7.640625 -7.882812 7.757812 -8.265625 7.875 -8.671875 C 7.988281 -9.085938 8.046875 -9.523438 8.046875 -9.984375 C 8.046875 -10.472656 7.957031 -10.863281 7.78125 -11.15625 C 7.613281 -11.445312 7.320312 -11.59375 6.90625 -11.59375 C 6.425781 -11.59375 5.9375 -11.398438 5.4375 -11.015625 C 4.9375 -10.640625 4.453125 -10.125 3.984375 -9.46875 C 3.515625 -8.820312 3.09375 -8.101562 2.71875 -7.3125 C 2.34375 -6.53125 2.046875 -5.734375 1.828125 -4.921875 C 1.609375 -4.117188 1.5 -3.359375 1.5 -2.640625 C 1.5 -2.078125 1.5625 -1.644531 1.6875 -1.34375 C 1.8125 -1.050781 2.019531 -0.90625 2.3125 -0.90625 Z M 2.3125 -0.90625 "/></g></g></g><g fill="#ed7939" fill-opacity="1"><g transform="translate(29.468091, 20.254931)"><g><path d="M 2.796875 0.296875 C 2.191406 0.296875 1.660156 0.175781 1.203125 -0.0625 C 0.742188 -0.300781 0.382812 -0.597656 0.125 -0.953125 C -0.125 -1.316406 -0.25 -1.6875 -0.25 -2.0625 C -0.25 -2.320312 -0.179688 -2.515625 -0.046875 -2.640625 C 0.078125 -2.773438 0.238281 -2.84375 0.4375 -2.84375 C 0.625 -2.84375 0.753906 -2.769531 0.828125 -2.625 C 0.910156 -2.488281 1 -2.273438 1.09375 -1.984375 C 1.257812 -1.492188 1.488281 -1.101562 1.78125 -0.8125 C 2.082031 -0.519531 2.519531 -0.375 3.09375 -0.375 C 3.726562 -0.375 4.195312 -0.582031 4.5 -1 C 4.8125 -1.425781 4.96875 -1.945312 4.96875 -2.5625 C 4.96875 -2.96875 4.894531 -3.347656 4.75 -3.703125 C 4.613281 -4.054688 4.425781 -4.425781 4.1875 -4.8125 L 3.484375 -6.015625 C 3.054688 -6.722656 2.738281 -7.304688 2.53125 -7.765625 C 2.320312 -8.222656 2.21875 -8.707031 2.21875 -9.21875 C 2.21875 -9.863281 2.367188 -10.429688 2.671875 -10.921875 C 2.984375 -11.421875 3.398438 -11.804688 3.921875 -12.078125 C 4.453125 -12.359375 5.03125 -12.5 5.65625 -12.5 C 6.1875 -12.5 6.632812 -12.398438 7 -12.203125 C 7.375 -12.003906 7.65625 -11.757812 7.84375 -11.46875 C 8.039062 -11.1875 8.140625 -10.921875 8.140625 -10.671875 C 8.140625 -10.429688 8.066406 -10.242188 7.921875 -10.109375 C 7.773438 -9.972656 7.613281 -9.90625 7.4375 -9.90625 C 7.25 -9.90625 7.113281 -9.976562 7.03125 -10.125 C 6.945312 -10.28125 6.867188 -10.457031 6.796875 -10.65625 C 6.671875 -10.988281 6.5 -11.269531 6.28125 -11.5 C 6.070312 -11.738281 5.71875 -11.859375 5.21875 -11.859375 C 4.675781 -11.859375 4.234375 -11.679688 3.890625 -11.328125 C 3.554688 -10.984375 3.390625 -10.5 3.390625 -9.875 C 3.390625 -9.488281 3.46875 -9.085938 3.625 -8.671875 C 3.78125 -8.265625 3.988281 -7.835938 4.25 -7.390625 L 4.921875 -6.21875 C 5.210938 -5.707031 5.445312 -5.285156 5.625 -4.953125 C 5.800781 -4.617188 5.929688 -4.3125 6.015625 -4.03125 C 6.097656 -3.757812 6.140625 -3.460938 6.140625 -3.140625 C 6.140625 -2.128906 5.820312 -1.300781 5.1875 -0.65625 C 4.550781 -0.0195312 3.753906 0.296875 2.796875 0.296875 Z M 2.796875 0.296875 "/></g></g></g><g fill="#ed7939" fill-opacity="1"><g transform="translate(35.381741, 20.254931)"><g><path d="M 5.34375 -11.5625 L 2.265625 -2.640625 C 2.203125 -2.429688 2.140625 -2.210938 2.078125 -1.984375 C 2.015625 -1.753906 1.984375 -1.554688 1.984375 -1.390625 C 1.984375 -1.203125 2.015625 -1.050781 2.078125 -0.9375 C 2.140625 -0.832031 2.269531 -0.78125 2.46875 -0.78125 C 2.84375 -0.78125 3.226562 -0.953125 3.625 -1.296875 C 4.03125 -1.648438 4.425781 -2.109375 4.8125 -2.671875 C 5.207031 -3.234375 5.5625 -3.835938 5.875 -4.484375 L 6.375 -4.484375 C 6.050781 -3.722656 5.648438 -2.988281 5.171875 -2.28125 C 4.691406 -1.570312 4.164062 -0.988281 3.59375 -0.53125 C 3.03125 -0.0820312 2.445312 0.140625 1.84375 0.140625 C 1.414062 0.140625 1.109375 0.03125 0.921875 -0.1875 C 0.734375 -0.414062 0.640625 -0.71875 0.640625 -1.09375 C 0.640625 -1.300781 0.675781 -1.539062 0.75 -1.8125 C 0.820312 -2.082031 0.894531 -2.34375 0.96875 -2.59375 L 4.046875 -11.5625 L 2.21875 -11.5625 L 2.40625 -12 C 3.0625 -12.007812 3.601562 -12.117188 4.03125 -12.328125 C 4.457031 -12.546875 4.816406 -12.875 5.109375 -13.3125 C 5.410156 -13.757812 5.71875 -14.3125 6.03125 -14.96875 L 6.5625 -14.96875 L 5.515625 -12.15625 L 7.828125 -12.15625 L 7.65625 -11.5625 Z M 5.34375 -11.5625 "/></g></g></g><g fill="#ed7939" fill-opacity="1"><g transform="translate(40.602337, 20.254931)"><g><path d="M 3.265625 -0.71875 C 3.984375 -0.71875 4.6875 -1.101562 5.375 -1.875 C 6.0625 -2.65625 6.679688 -3.648438 7.234375 -4.859375 L 7.703125 -4.859375 C 7.316406 -3.847656 6.859375 -2.953125 6.328125 -2.171875 C 5.804688 -1.398438 5.238281 -0.796875 4.625 -0.359375 C 4.019531 0.078125 3.378906 0.296875 2.703125 0.296875 C 1.953125 0.296875 1.351562 0.0195312 0.90625 -0.53125 C 0.46875 -1.082031 0.25 -1.851562 0.25 -2.84375 C 0.25 -3.582031 0.363281 -4.382812 0.59375 -5.25 C 0.832031 -6.113281 1.160156 -6.96875 1.578125 -7.8125 C 1.992188 -8.65625 2.46875 -9.425781 3 -10.125 C 3.539062 -10.832031 4.117188 -11.394531 4.734375 -11.8125 C 5.347656 -12.238281 5.976562 -12.453125 6.625 -12.453125 C 7.164062 -12.453125 7.59375 -12.28125 7.90625 -11.9375 C 8.226562 -11.601562 8.390625 -11.164062 8.390625 -10.625 C 8.390625 -10.03125 8.210938 -9.4375 7.859375 -8.84375 C 7.503906 -8.25 7.019531 -7.703125 6.40625 -7.203125 C 5.800781 -6.703125 5.113281 -6.273438 4.34375 -5.921875 C 3.570312 -5.566406 2.78125 -5.316406 1.96875 -5.171875 C 1.75 -4.304688 1.640625 -3.546875 1.640625 -2.890625 C 1.640625 -2.179688 1.789062 -1.640625 2.09375 -1.265625 C 2.394531 -0.898438 2.785156 -0.71875 3.265625 -0.71875 Z M 6.421875 -11.734375 C 5.972656 -11.734375 5.535156 -11.5625 5.109375 -11.21875 C 4.691406 -10.875 4.289062 -10.414062 3.90625 -9.84375 C 3.53125 -9.269531 3.1875 -8.632812 2.875 -7.9375 C 2.570312 -7.238281 2.320312 -6.535156 2.125 -5.828125 C 3.03125 -6.023438 3.875 -6.359375 4.65625 -6.828125 C 5.4375 -7.296875 6.0625 -7.859375 6.53125 -8.515625 C 7.007812 -9.171875 7.25 -9.875 7.25 -10.625 C 7.25 -10.96875 7.191406 -11.238281 7.078125 -11.4375 C 6.960938 -11.632812 6.742188 -11.734375 6.421875 -11.734375 Z M 6.421875 -11.734375 "/></g></g></g><g fill="#ed7939" fill-opacity="1"><g transform="translate(47.555748, 20.254931)"><g><path d="M 2.078125 0 L 0.734375 0 L 3.859375 -9.46875 C 3.953125 -9.78125 4.046875 -10.097656 4.140625 -10.421875 C 4.234375 -10.742188 4.28125 -10.972656 4.28125 -11.109375 C 4.28125 -11.285156 4.25 -11.40625 4.1875 -11.46875 C 4.125 -11.53125 4.035156 -11.5625 3.921875 -11.5625 C 3.660156 -11.5625 3.367188 -11.414062 3.046875 -11.125 C 2.722656 -10.84375 2.394531 -10.476562 2.0625 -10.03125 C 1.738281 -9.582031 1.441406 -9.128906 1.171875 -8.671875 L 0.6875 -8.671875 C 1.007812 -9.285156 1.382812 -9.875 1.8125 -10.4375 C 2.25 -11.007812 2.710938 -11.476562 3.203125 -11.84375 C 3.703125 -12.21875 4.191406 -12.40625 4.671875 -12.40625 C 4.972656 -12.40625 5.195312 -12.300781 5.34375 -12.09375 C 5.488281 -11.882812 5.5625 -11.644531 5.5625 -11.375 C 5.5625 -11.125 5.507812 -10.84375 5.40625 -10.53125 C 5.3125 -10.226562 5.195312 -9.875 5.0625 -9.46875 L 3.53125 -5.265625 L 3.703125 -5.265625 C 4.359375 -7.128906 5.019531 -8.582031 5.6875 -9.625 C 6.363281 -10.664062 7.019531 -11.394531 7.65625 -11.8125 C 8.300781 -12.238281 8.898438 -12.453125 9.453125 -12.453125 C 9.941406 -12.453125 10.1875 -12.257812 10.1875 -11.875 C 10.1875 -11.632812 10.101562 -11.40625 9.9375 -11.1875 C 9.769531 -10.96875 9.5625 -10.859375 9.3125 -10.859375 C 9.113281 -10.859375 8.941406 -10.894531 8.796875 -10.96875 C 8.660156 -11.050781 8.476562 -11.09375 8.25 -11.09375 C 7.9375 -11.09375 7.570312 -10.910156 7.15625 -10.546875 C 6.75 -10.179688 6.285156 -9.578125 5.765625 -8.734375 C 5.242188 -7.898438 4.675781 -6.769531 4.0625 -5.34375 C 3.445312 -3.925781 2.785156 -2.144531 2.078125 0 Z M 2.078125 0 "/></g></g></g><g fill="#ed7939" fill-opacity="1"><g transform="translate(54.601573, 20.254931)"><g><path d="M -1.625 5.296875 C -1.957031 5.296875 -2.207031 5.222656 -2.375 5.078125 C -2.550781 4.941406 -2.640625 4.773438 -2.640625 4.578125 C -2.640625 4.285156 -2.523438 4.035156 -2.296875 3.828125 C -2.078125 3.628906 -1.8125 3.53125 -1.5 3.53125 C -1.25 3.53125 -1.039062 3.566406 -0.875 3.640625 C -0.71875 3.722656 -0.5625 3.800781 -0.40625 3.875 C -0.257812 3.957031 -0.0703125 4 0.15625 4 C 0.46875 4 0.800781 3.859375 1.15625 3.578125 C 1.519531 3.304688 1.894531 2.941406 2.28125 2.484375 C 2.664062 2.023438 3.035156 1.535156 3.390625 1.015625 C 3.609375 -1.390625 3.75 -3.488281 3.8125 -5.28125 C 3.875 -7.070312 3.894531 -8.445312 3.875 -9.40625 C 3.875 -10.238281 3.832031 -10.78125 3.75 -11.03125 C 3.664062 -11.289062 3.523438 -11.421875 3.328125 -11.421875 C 3.046875 -11.421875 2.734375 -11.128906 2.390625 -10.546875 C 2.046875 -9.972656 1.695312 -9.242188 1.34375 -8.359375 L 0.875 -8.359375 C 1.125 -9.015625 1.394531 -9.648438 1.6875 -10.265625 C 1.976562 -10.878906 2.304688 -11.382812 2.671875 -11.78125 C 3.035156 -12.1875 3.414062 -12.390625 3.8125 -12.390625 C 4.300781 -12.390625 4.640625 -12.164062 4.828125 -11.71875 C 5.023438 -11.28125 5.132812 -10.539062 5.15625 -9.5 C 5.15625 -8.53125 5.117188 -7.242188 5.046875 -5.640625 C 4.984375 -4.035156 4.847656 -2.285156 4.640625 -0.390625 C 6.054688 -2.222656 7.109375 -3.90625 7.796875 -5.4375 C 8.484375 -6.96875 8.828125 -8.273438 8.828125 -9.359375 C 8.828125 -9.753906 8.773438 -10.09375 8.671875 -10.375 C 8.578125 -10.664062 8.476562 -10.921875 8.375 -11.140625 C 8.28125 -11.367188 8.234375 -11.59375 8.234375 -11.8125 C 8.234375 -11.976562 8.285156 -12.128906 8.390625 -12.265625 C 8.492188 -12.410156 8.65625 -12.484375 8.875 -12.484375 C 9.1875 -12.484375 9.421875 -12.304688 9.578125 -11.953125 C 9.742188 -11.609375 9.828125 -11.050781 9.828125 -10.28125 C 9.828125 -9.050781 9.472656 -7.644531 8.765625 -6.0625 C 8.054688 -4.488281 7.09375 -2.832031 5.875 -1.09375 C 5.039062 0.09375 4.222656 1.171875 3.421875 2.140625 C 2.617188 3.117188 1.804688 3.890625 0.984375 4.453125 C 0.160156 5.015625 -0.707031 5.296875 -1.625 5.296875 Z M -1.625 5.296875 "/></g></g></g></g></g></g></g></g></svg>